<?xml version="1.0" encoding="UTF-8"?>
<svg xmlns="http://www.w3.org/2000/svg" viewBox="0 0 96 96">
    <path
        d="M94.03,49.3c-.79,2.29-2.97,3.99-4.31,6.01-3.17,4.5-4.1,10.05-7.26,14.52-10.09,16.52-32.84,23.54-50.59,15.94C-9.47,68.28,2.43,7.78,47.59,7.18c16.08-.1,31.02,9.51,37.55,23.89,1.46,3.22,2.42,6.73,4.56,9.61,1.71,2.63,5.4,5.12,4.32,8.62Z"
        fill="#ccb893" stroke="#8c6b44" stroke-miterlimit="0" stroke-width="3" />
    <circle cx="47.57" cy="48" r="35.25" fill="#ede4d2" />
    <path
        d="M51.46,26.07c11.1.65,15.6,11.04,17.89,16.95.74,1.53,2.87,2.68,3.67,3.94.41.63.1,1.32-.5,1.71-1.21.8-4.42.96-4.43,2.37-.04,5.95-9.52,17-15.43,13.67-.81-.99-1.47-3.45-2.43-4.66-1.36-1.9-3.44-1.34-4.42.57-.83,1.22-.98,2.8-1.92,3.95-5.45,3.74-15.54-7.24-15.38-13.65.04-1.52-4.72-1.25-5.56-2.72-.99-1.74,2.94-2.74,3.4-4.38,1.87-6.74,7.03-16.69,18.14-17.63,1.26-2.68-7.91-2.55-3.15-6.02,1.41-1.2,3.14-2.23,4.2-4.08.9-1.57,2.64-3.02,4.15-1.38.63.69,1.43,2.25,2.17,3.04,1.05,1.11,3.71,2.23,4.11,3.68.06,1.81-4.68,3.05-4.52,4.63ZM48.2,33.61c-1.3,1.02-1.33,3.49-2.24,4.9-2.73,7.35-14.34,6.21-6.93,9.12,3.07,1.4,5.53,3.52,7.12,6.5.52.82,1.2,2.99,2.13,3.21,1.08-.6,1.44-2.65,2.06-3.76,1.48-3.84,5.12-5.19,8.67-6.77,3.73-1.43-7.44-1.21-9.72-11.04-.27-.65-.51-1.85-1.09-2.17Z"
        fill="#615d66" />
    <path
        d="M47.78,61.26c2.9-1,3.22,5.62,3.87,6.19.39.22.79.06,1.38-.05,1.21-.22,3.85-1.25,3.97.72-.55,1.11-2.13,2.27-3.09,3.27-2.46,1.87-3.63,8.42-4.67,10.1-1.98,2.47-2.96-4.87-3.44-5.29-.55-1.22-1.22-2.6-1.99-3.68-.54-.73-2.66-2.64-3.7-3.68-.47-.46-.55-.57-.46-1.1.5-1.66,3.88,0,5.06-.19,1.11-.34,1.03-5.56,3.06-6.29Z"
        fill="#615d66" />
</svg>