<?xml version="1.0" encoding="UTF-8"?>
<svg xmlns="http://www.w3.org/2000/svg" xmlns:xlink="http://www.w3.org/1999/xlink"
    viewBox="0 0 96 96">
    <defs>
        <linearGradient id="b" x1="48" y1="123.25" x2="48" y2="41.5"
            gradientTransform="translate(0 130) scale(1 -1)" gradientUnits="userSpaceOnUse">
            <stop offset="0" stop-color="#885ec6" />
            <stop offset="1" stop-color="#ad89da" />
        </linearGradient>
    </defs>
    <path
        d="M18,73.5c-4.42-8.85-8.85-27.84-9-39.88,0-.4-.16-.77-.44-1.06l-3.62-3.62c-.28-.28-.44-.66-.24-1C7.36,23.29,35.85,1.5,48,1.5s40.64,21.79,43.3,26.44c.2.35.04.72-.24,1l-3.62,3.62c-.28.28-.44.66-.44,1.06-.15,12.04-4.57,31.04-9,39.88s-19.5,21-30,21-25.5-12-30-21Z"
        fill="url(#b)" />
    <path
        d="M8.93,27.6c.98-.97,2.29-2.14,3.87-3.46,3.15-2.63,7.26-5.73,11.66-8.68,4.41-2.96,9.07-5.75,13.31-7.78,4.35-2.08,7.9-3.18,10.22-3.18,2.32,0,5.87,1.1,10.22,3.18,4.25,2.03,8.9,4.82,13.31,7.78,4.41,2.96,8.51,6.06,11.66,8.68,1.58,1.31,2.89,2.49,3.87,3.46.2.2.38.38.54.55l-2.29,2.29-.3.33c-.65.79-1.01,1.79-1.02,2.81-.07,5.73-1.17,13.27-2.82,20.51-1.66,7.26-3.8,13.96-5.86,18.07-1.96,3.93-6.44,8.84-11.84,12.8-5.45,4-11.19,6.54-15.48,6.54s-10.02-2.55-15.48-6.54c-5.4-3.96-9.88-8.87-11.84-12.8-2.06-4.11-4.2-10.81-5.86-18.07-1.65-7.24-2.75-14.78-2.82-20.51-.01-1.17-.48-2.3-1.32-3.14l-2.29-2.29c.16-.17.34-.35.54-.55Z"
        fill="none" isolation="isolate" opacity=".2" stroke="#fff" stroke-width="6" />
    <path
        d="M6.34,28.22c.32-.41.83-.97,1.55-1.68,1.02-1,2.36-2.21,3.96-3.54,3.19-2.66,7.34-5.79,11.79-8.78,4.45-2.99,9.17-5.82,13.5-7.89,4.39-2.1,8.19-3.33,10.87-3.33,2.68,0,6.48,1.23,10.87,3.33,4.33,2.07,9.05,4.9,13.5,7.89,4.45,2.99,8.6,6.12,11.79,8.78,1.6,1.33,2.94,2.54,3.96,3.54.72.71,1.22,1.27,1.54,1.68l-3.28,3.28c-.56.56-.87,1.31-.88,2.1-.07,5.88-1.19,13.52-2.86,20.82-1.67,7.31-3.85,14.14-5.98,18.41-2.11,4.21-6.78,9.29-12.3,13.34-5.54,4.06-11.59,6.83-16.36,6.83s-10.82-2.77-16.36-6.83c-5.51-4.04-10.19-9.12-12.3-13.34-2.13-4.27-4.31-11.1-5.98-18.41-1.66-7.3-2.78-14.95-2.86-20.82,0-.78-.32-1.54-.88-2.1l-3.29-3.28Z"
        fill="none" stroke="#605775" stroke-width="3" />
    <path
        d="M19.2,28.52c.75-.66,2.04-1.66,3.78-2.89,2.24-1.59,5.08-3.49,8.07-5.35,2.99-1.86,6.12-3.69,8.94-5.15,2.63-1.37,4.9-2.38,6.52-2.85v71.49c-2.68-.67-6.68-2.76-10.43-5.52-3.93-2.89-7.23-6.27-8.44-9.1-2.92-6.81-8.03-21.88-8.13-39.39,0-.44-.11-.86-.3-1.25Z"
        fill="#8365af" isolation="isolate" opacity=".4" stroke="#6b5496" stroke-width="3" />
</svg>