<?xml version="1.0" encoding="UTF-8"?>
<svg xmlns="http://www.w3.org/2000/svg" viewBox="0 0 512 128">
    <path
        d="M471.84,64c-.02,14.94-11.05,27.79-27.04,32.58.4,3.18-2.2,6.2-6.09,6.17H73.32c-3.93.03-6.59-3.11-6.09-6.33-34.79-10.24-35.01-54.45,0-64.83-.44-3.23,2.09-6.36,6.09-6.33h365.39c3.83-.03,6.54,2.99,6.09,6.17,15.75,4.68,27.04,17.5,27.04,32.58Z"
        fill="#cfa56a" stroke="#c79d63" stroke-miterlimit="10" stroke-width="9.67" />
    <path
        d="M476.22,64c-.02,16.91-11.28,31.45-27.6,36.87.41,3.6-2.25,7.01-6.21,6.98H69.6c-4.01.03-6.72-3.51-6.21-7.17-35.49-11.59-35.72-61.63,0-73.37-.45-3.65,2.14-7.2,6.21-7.17h372.8c3.91-.03,6.67,3.38,6.21,6.98,16.07,5.3,27.6,19.81,27.6,36.87h0Z"
        fill="none" stroke="#91744a" stroke-miterlimit="10" stroke-width="5.69" />
    <path
        d="M441.46,64.02c6.96-1.22,10.18-4.49,11.39-11.39,1.19,7.03,4.48,10.18,11.39,11.39-7.04,1.19-10.21,4.41-11.39,11.39-1.22-6.97-4.43-10.21-11.39-11.39Z"
        fill="#c79d63" />
    <path
        d="M47.79,64.02c6.96-1.22,10.18-4.49,11.39-11.39,1.19,7.03,4.48,10.18,11.39,11.39-7.04,1.19-10.21,4.41-11.39,11.39-1.22-6.97-4.43-10.21-11.39-11.39Z"
        fill="#c79d63" />
</svg>