<?xml version="1.0" encoding="UTF-8"?>
<svg xmlns="http://www.w3.org/2000/svg" viewBox="0 0 512 128">
    <path
        d="M503.47,70.25c-.94,1-29.5,36.71-30.54,37.5-1.72,3.05-10.59,1.35-13.33,1.76-.57,5.12-4.91,9.1-10.18,9.1H62.58c-5.27,0-9.61-3.98-10.18-9.1-1.62-.39-9.88.59-11.18-.47-1.44,1.26-31.45-37.83-32.69-38.79-2.79-3.45-2.79-9.05,0-12.49l29.64-36.56c2.5-4.08,10.43-2.36,14.23-2.7.57-5.12,4.91-9.1,10.18-9.1h386.84c5.27,0,9.61,3.98,10.18,9.1,3.68.36,12.08-1.48,14.23,2.7l29.64,36.56c2.79,3.45,2.79,9.05,0,12.49Z"
        fill="#b49470" stroke="#5d462e" stroke-miterlimit="10" stroke-width="1.14" />
    <path
        d="M497.99,69.79l-29.09,33.91c-2.81,3.69-8.82,2.07-12.65,2.4.27,4.9-3.59,9.12-8.53,9.1H64.85c-4.93.02-8.82-4.2-8.53-9.1-3.95-.47-10.34,1.44-13.22-2.4l-29.09-33.91c-2.75-3.2-2.75-8.39,0-11.59l29.09-33.9c2.86-3.82,9.31-2,13.22-2.4-.27-4.9,3.59-9.12,8.53-9.1h382.86c4.93-.02,8.82,4.2,8.53,9.1,3.87.36,9.82-1.31,12.65,2.4l29.09,33.9c2.74,3.2,2.74,8.39,0,11.59Z"
        fill="#735a3f" />
    <path
        d="M471.84,64c-.02,14.94-11.05,27.79-27.04,32.58.4,3.18-2.2,6.2-6.09,6.17H73.32c-3.93.03-6.59-3.11-6.09-6.33-34.79-10.24-35.01-54.45,0-64.83-.44-3.23,2.09-6.36,6.09-6.33h365.39c3.83-.03,6.54,2.99,6.09,6.17,15.75,4.68,27.04,17.5,27.04,32.58Z"
        fill="#e9e2d3" stroke="#dbcfb8" stroke-miterlimit="10" stroke-width="9.67" />
    <path
        d="M476.22,64c-.02,16.91-11.28,31.45-27.6,36.87.41,3.6-2.25,7.01-6.21,6.98H69.6c-4.01.03-6.72-3.51-6.21-7.17-35.49-11.59-35.72-61.63,0-73.37-.45-3.65,2.14-7.2,6.21-7.17h372.8c3.91-.03,6.67,3.38,6.21,6.98,16.07,5.3,27.6,19.81,27.6,36.87h0Z"
        fill="none" stroke="#ebdab7" stroke-miterlimit="10" stroke-width="5.69" />
    <path
        d="M441.46,64.02c6.96-1.22,10.18-4.49,11.39-11.39,1.19,7.03,4.48,10.18,11.39,11.39-7.04,1.19-10.21,4.41-11.39,11.39-1.22-6.97-4.43-10.21-11.39-11.39Z"
        fill="#dbcfb8" />
    <path
        d="M47.79,64.02c6.96-1.22,10.18-4.49,11.39-11.39,1.19,7.03,4.48,10.18,11.39,11.39-7.04,1.19-10.21,4.41-11.39,11.39-1.22-6.97-4.43-10.21-11.39-11.39Z"
        fill="#dbcfb8" />
</svg>