<?xml version="1.0" encoding="UTF-8"?>
<svg xmlns="http://www.w3.org/2000/svg" xmlns:xlink="http://www.w3.org/1999/xlink"
    viewBox="0 0 224 384">
    <defs>
        <filter id="c" x="-18.13" y="36.6" width="260.27" height="311.8"
            color-interpolation-filters="sRGB" filterUnits="userSpaceOnUse">
            <feColorMatrix result="cm" values="-1 0 0 0 1 0 -1 0 0 1 0 0 -1 0 1 0 0 0 1 0" />
        </filter>
        <linearGradient id="e" x1="112.5" y1="332.69" x2="112.5" y2="263.97"
            gradientTransform="translate(0 384) scale(1 -1)" gradientUnits="userSpaceOnUse">
            <stop offset="0" stop-color="#000" stop-opacity="0" />
            <stop offset="1" stop-color="#000" />
        </linearGradient>
        <mask id="b" x="-18.13" y="36.6" width="260.27" height="311.8" maskUnits="userSpaceOnUse">
            <g filter="url(#c)">
                <g id="d">
                    <rect x="16.5" y="36.6" width="192" height="311.8" fill="url(#e)" />
                </g>
            </g>
        </mask>
    </defs>
    <rect width="224" height="384" rx="14.93" ry="14.93" fill="#33313f" />
    <path d="M217.6,6.4h-23.47l4.27,4.27c8.75,0,14.93,6.19,14.93,14.93l4.27,4.27V6.4Z"
        fill="#8f7764" />
    <path d="M6.4,377.6h23.47l-4.27-4.27c-8.75,0-14.93-6.19-14.93-14.93l-4.27-4.27v23.47Z"
        fill="#8f7764" />
    <path d="M217.6,377.6h-23.47l4.27-4.27c8.75,0,14.93-6.19,14.93-14.93l4.27-4.27v23.47Z"
        fill="#8f7764" />
    <path d="M6.4,6.4h23.47l-4.27,4.27c-8.75,0-14.93,6.19-14.93,14.93l-4.27,4.27V6.4Z"
        fill="#8f7764" />
    <rect x="3.2" y="3.2" width="217.6" height="377.6" rx="16.53" ry="16.53" fill="none"
        stroke="#b59f8f" stroke-width="6.4" />
    <rect x="1.07" y="1.07" width="221.87" height="381.87" rx="13.87" ry="13.87" fill="none"
        stroke="#5f5241" stroke-width="2.13" />
    <rect x="6.93" y="6.93" width="210.13" height="370.13" rx="12.27" ry="12.27" fill="none"
        stroke="#8f7764" stroke-width="1.07" />
    <path
        d="M192.83,17.6c.53,8.43,7.27,15.17,15.7,15.7v317.14c-8.45.55-15.42,7.52-15.96,15.96H31.17c-.53-8.43-7.27-15.17-15.7-15.7V33.3c8.43-.53,15.17-7.27,15.7-15.7h161.67Z"
        fill="none" stroke="#3e425c" stroke-width="2.13" />
    <circle cx="112" cy="162.67" r="78.4" fill="none" stroke="#444552" stroke-width="1.07" />
    <circle cx="112" cy="173.33" r="88.53" fill="none" stroke="#444552" stroke-width="2.13" />
    <path
        d="M14.22,16.11c-.11-.19.1-.4.29-.29l5.69,3.31c.06.04.14.04.2,0l4.57-2.32c.18-.09.37.09.29.28l-2.13,4.78c-.03.06-.02.13,0,.19l3.11,5.5c.11.19-.1.4-.29.29l-5.5-3.11c-.06-.03-.13-.04-.19,0l-4.78,2.13c-.18.08-.37-.11-.28-.29l2.32-4.57c.03-.06.03-.14,0-.2l-3.31-5.69Z"
        fill="#53566b" />
    <path
        d="M17.11,21.08c-.9-1.54.83-3.27,2.37-2.37h0c.51.3,1.13.31,1.66.05h0c1.46-.74,3.04.76,2.38,2.26l-.07.16c-.23.51-.2,1.09.08,1.57h0c.87,1.54-.84,3.26-2.38,2.38h0c-.48-.27-1.07-.3-1.57-.08l-.16.07c-1.5.66-3-.92-2.26-2.38h0c.27-.53.25-1.15-.05-1.66h0Z"
        fill="#53566b" />
    <path
        d="M209.7,16.11c.11-.19-.1-.4-.29-.29l-5.69,3.31c-.06.04-.14.04-.2,0l-4.57-2.32c-.18-.09-.37.09-.29.28l2.13,4.78c.03.06.02.13,0,.19l-3.11,5.5c-.11.19.1.4.29.29l5.5-3.11c.06-.03.13-.04.19,0l4.78,2.13c.18.08.37-.11.28-.29l-2.32-4.57c-.03-.06-.03-.14,0-.2l3.31-5.69Z"
        fill="#53566b" />
    <path
        d="M206.81,21.08c.9-1.54-.83-3.27-2.37-2.37h0c-.51.3-1.13.31-1.66.05h0c-1.46-.74-3.04.76-2.38,2.26l.07.16c.23.51.2,1.09-.08,1.57h0c-.87,1.54.84,3.26,2.38,2.38h0c.48-.27,1.07-.3,1.57-.08l.16.07c1.49.66,3-.92,2.26-2.38h0c-.27-.53-.25-1.15.05-1.66h0Z"
        fill="#53566b" />
    <path
        d="M14.22,367.81c-.11.19.1.4.29.29l5.69-3.31c.06-.04.14-.04.2,0l4.57,2.32c.18.09.37-.09.29-.28l-2.13-4.78c-.03-.06-.02-.13,0-.19l3.11-5.5c.11-.19-.1-.4-.29-.29l-5.5,3.11c-.06.03-.13.04-.19,0l-4.78-2.13c-.18-.08-.37.11-.28.29l2.32,4.57c.03.06.03.14,0,.2l-3.31,5.69Z"
        fill="#53566b" />
    <path
        d="M17.11,362.83c-.9,1.54.83,3.27,2.37,2.37h0c.51-.3,1.13-.31,1.66-.05h0c1.46.74,3.04-.76,2.38-2.26l-.07-.16c-.23-.51-.2-1.09.08-1.57h0c.87-1.54-.84-3.26-2.38-2.38h0c-.48.27-1.07.3-1.57.08l-.16-.07c-1.5-.66-3,.92-2.26,2.38h0c.27.52.25,1.15-.05,1.66h0Z"
        fill="#53566b" />
    <path
        d="M209.7,367.81c.11.19-.1.4-.29.29l-5.69-3.31c-.06-.04-.14-.04-.2,0l-4.57,2.32c-.18.09-.37-.09-.29-.28l2.13-4.78c.03-.06.02-.13,0-.19l-3.11-5.5c-.11-.19.1-.4.29-.29l5.5,3.11c.06.03.13.04.19,0l4.78-2.13c.18-.08.37.11.28.29l-2.32,4.57c-.03.06-.03.14,0,.2l3.31,5.69Z"
        fill="#53566b" />
    <path
        d="M206.81,362.83c.9,1.54-.83,3.27-2.37,2.37h0c-.51-.3-1.13-.31-1.66-.05h0c-1.46.74-3.04-.76-2.38-2.26l.07-.16c.23-.51.2-1.09-.08-1.57h0c-.87-1.54.84-3.26,2.38-2.38h0c.48.27,1.07.3,1.57.08l.16-.07c1.49-.66,3,.92,2.26,2.38h0c-.27.52-.25,1.15.05,1.66h0Z"
        fill="#53566b" />
    <rect x="111.47" y="241.07" width="1.07" height="41.07" fill="#444552" />
    <path d="M107.2,261.33l4.8-7,4.8,7-4.8,7-4.8-7Z" fill="#444552" />
    <path d="M116.15,287l-4.15,6.06-4.15-6.06,4.15-6.06,4.15,6.06Z" fill="none" stroke="#444552"
        stroke-width="1.07" />
    <path d="M107.2,299.27l4.8-7,4.8,7-4.8,7-4.8-7Z" fill="#444552" />
    <path d="M57.38,243.04l7.96-2.93-.13,8.49-7.96,2.93.13-8.49Z" fill="#444552" />
    <path d="M166.55,243.04l-7.96-2.93.13,8.49,7.96,2.93-.13-8.49Z" fill="#444552" />
    <g mask="url(#b)">
        <circle cx="112" cy="173.33" r="82.13" fill="none" isolation="isolate" opacity=".25"
            stroke="#444552" stroke-dasharray="0 8 1.07 16" stroke-width="53.33" />
        <circle cx="112" cy="173.33" r="82.13" fill="none" isolation="isolate" opacity=".25"
            stroke="#444552" stroke-dasharray="1.07 24" stroke-width="96" />
        <circle cx="112" cy="173.33" r="82.13" fill="none" isolation="isolate" opacity=".25"
            stroke="#444552" stroke-dasharray="0 16 1.07 8" stroke-width="64" />
    </g>
    <path
        d="M111.48,64.35c.14-.53.89-.53,1.03,0l4.21,15.91c.05.17.18.31.35.37l12.16,3.98c.48.16.49.82.03,1l-12.22,4.7c-.16.06-.28.19-.32.36l-4.21,15.22c-.14.52-.88.52-1.03,0l-4.21-15.22c-.04-.16-.16-.29-.32-.36l-12.22-4.7c-.47-.18-.45-.85.03-1l12.16-3.98c.17-.06.3-.2.35-.37l4.21-15.91Z"
        fill="#837257" />
    <path
        d="M107.8,78.25c1.14-4.31,7.25-4.31,8.39,0h0c.38,1.42,1.45,2.56,2.85,3.01h0c3.89,1.27,4.03,6.72.21,8.19l-.4.15c-1.29.5-2.27,1.58-2.64,2.91h0c-1.18,4.27-7.24,4.27-8.42,0h0c-.37-1.34-1.35-2.42-2.64-2.91l-.4-.15c-3.82-1.47-3.68-6.92.21-8.19h0c1.4-.46,2.47-1.59,2.85-3.01h0Z"
        fill="#837257" />
    <path
        d="M158.09,77.89c.12-.44.74-.44.86,0l3.52,13.29c.04.15.15.26.29.31l10.16,3.32c.4.13.41.69.02.84l-10.2,3.92c-.13.05-.23.16-.27.3l-3.52,12.71c-.12.44-.74.44-.86,0l-3.52-12.71c-.04-.14-.14-.25-.27-.3l-10.2-3.92c-.39-.15-.38-.71.02-.84l10.16-3.32c.14-.05.25-.16.29-.31l3.52-13.29Z"
        fill="#837257" />
    <path
        d="M155.02,89.51c.95-3.6,6.06-3.6,7.01,0h0c.31,1.19,1.21,2.14,2.38,2.52h0c3.25,1.06,3.37,5.61.18,6.84l-.33.13c-1.08.42-1.9,1.32-2.21,2.43h0c-.99,3.57-6.05,3.57-7.04,0h0c-.31-1.12-1.13-2.02-2.21-2.43l-.33-.13c-3.19-1.23-3.07-5.78.18-6.84h0c1.17-.38,2.06-1.33,2.38-2.52h0Z"
        fill="#837257" />
    <path
        d="M65.29,77.89c.12-.44.74-.44.86,0l3.52,13.29c.04.15.15.26.29.31l10.16,3.32c.4.13.41.69.02.84l-10.2,3.92c-.13.05-.23.16-.27.3l-3.52,12.71c-.12.44-.74.44-.86,0l-3.52-12.71c-.04-.14-.14-.25-.27-.3l-10.2-3.92c-.39-.15-.38-.71.02-.84l10.16-3.32c.14-.05.25-.16.29-.31l3.52-13.29Z"
        fill="#837257" />
    <path
        d="M62.22,89.51c.95-3.6,6.06-3.6,7.01,0h0c.31,1.19,1.21,2.14,2.38,2.52h0c3.25,1.06,3.37,5.61.18,6.84l-.33.13c-1.08.42-1.9,1.32-2.21,2.43h0c-.99,3.57-6.05,3.57-7.04,0h0c-.31-1.12-1.13-2.02-2.21-2.43l-.33-.13c-3.19-1.23-3.07-5.78.18-6.84h0c1.17-.38,2.06-1.33,2.38-2.52h0Z"
        fill="#837257" />
    <circle cx="112" cy="157.33" r="7.47" fill="#9a896c" />
    <path
        d="M95.77,134.55c3.47.27,11.2,2.13,15.47,5.87-9.6,5.33-16.53,19.2-16.53,32.27s9.87,23.47,17.6,30.67c3.2-2.67,12.53-12.53,14.4-18.93,3.47-.53,10.93-2.4,17.33-7.2-2.93,18.67-18.93,36.53-31.73,43.2-16.27-9.07-32.53-29.33-32.53-47.73,0-19.73,6.93-29.07,16-38.13Z"
        fill="#9a896c" />
    <path
        d="M142.7,156.68c-2.13,2.93-7.73,7.47-13.33,9.33-.8-15.47-15.94-26.51-22.4-29.6-12.27-5.87-33.6-2.93-37.07-1.6-.53,4,6.13,16.27,10.93,22.13-1.07,3.2-2.4,10.67-1.87,17.6-14.93-10.4-25.07-33.87-24.8-48.27,15.99-9.55,42.4-10.13,60.14-2.53,12.72,5.45,25.08,20.55,28.4,32.93Z"
        fill="#9a896c" />
    <path
        d="M97.89,182.78c-2.12-4.77-2.39-10.1-1.59-15.7,9.34,5.77,31.66,3.63,41.87-4.53,10.67-8.53,14.93-18.93,16.8-27.2-7.2-2.67-18.67-3.2-25.07-1.87-2.93-3.2-8.53-7.73-15.47-10.67,17.07-6.67,44-4,56.27,3.47-.8,18.4-9.6,36.53-24.53,48.27-16,12.57-37.6,10.93-48.28,8.23Z"
        fill="#9a896c" />
</svg>