<?xml version="1.0" encoding="UTF-8"?>
<svg xmlns="http://www.w3.org/2000/svg" viewBox="0 0 420 720">
    <path d="M411.5,8.5h-40l7.27,7.27c14.91,0,25.45,10.55,25.45,25.45l7.27,7.27V8.5Z" fill="#c3b7a6" />
    <path d="M8.5,711.5h40l-7.27-7.27c-14.91,0-25.45-10.55-25.45-25.45l-7.27-7.27v40Z"
        fill="#c3b7a6" />
    <path d="M411.5,711.5h-40l7.27-7.27c14.91,0,25.45-10.55,25.45-25.45l7.27-7.27v40Z"
        fill="#c3b7a6" />
    <path d="M8.5,8.5h40l-7.27,7.27c-14.91,0-25.45,10.55-25.45,25.45l-7.27,7.27V8.5Z" fill="#c3b7a6" />
    <rect x="4" y="4" width="412" height="712" rx="31" ry="31" fill="none" stroke="#e1d9c7"
        stroke-width="8" />
    <rect x="1.5" y="1.5" width="417" height="717" rx="26" ry="26" fill="none" stroke="#766e63"
        stroke-width="3" />
    <rect x="9" y="9" width="402" height="702" rx="23" ry="23" fill="none" stroke="#c3b7a6"
        stroke-width="2" />
</svg>