<?xml version="1.0" encoding="UTF-8"?>
<svg xmlns="http://www.w3.org/2000/svg" xmlns:xlink="http://www.w3.org/1999/xlink"
    viewBox="0 0 288 448">
    <defs>
        <filter id="b" x="0" y="-1" width="278" height="441" filterUnits="userSpaceOnUse">
            <feOffset dx="0" dy="0" />
            <feGaussianBlur result="c" stdDeviation="2" />
            <feFlood flood-color="#7d50e8" flood-opacity="1" />
            <feComposite in2="c" operator="in" />
            <feComposite in="SourceGraphic" />
        </filter>
    </defs>
    <g filter="url(#b)">
        <g>
            <polygon
                points="200.99 30.43 145.32 46.43 117.32 32.1 108.2 10.97 110.08 19.03 91.15 21.24 67.65 27.43 48.99 14.1 26.71 16.51 20.31 17.06 16.42 13.58 19.53 18.44 7.99 60.77 27.65 74.1 20.11 110.81 17.56 99.38 19.3 114.75 14.99 135.77 55.8 170.05 48.37 179.27 34.32 201.29 27.53 213.28 31.65 222.1 16.99 249.43 33.43 221.88 29.8 211.94 43.43 195.88 57.43 170.99 59.16 146.62 52.24 139.14 66.24 106 50.91 137.84 48.7 129.56 50.33 138.9 57.93 147.87 55.75 166.08 36.64 152.41 19.64 133.75 21.32 114.37 29.71 89.7 29.47 70.48 9.94 60.14 16.1 52.1 13.43 47.21 20.32 18.77 29.27 16.8 48.43 16.66 67.21 28.3 81.99 26.68 92.88 22.57 110.21 20.02 114.99 33.35 127.68 38.18 144.18 48.35 154.45 47.96 145.36 55.24 157.38 47.85 168.96 40.52 175.13 40.02 200.99 30.43"
                fill="#cbbaf4" stroke="#7d50e8" stroke-miterlimit="100" />
            <polygon
                points="74.08 408.25 129.74 392.25 157.74 406.58 166.87 427.71 164.98 419.65 183.91 417.44 207.41 411.25 226.08 424.58 248.36 422.17 254.75 421.62 258.65 425.1 255.53 420.25 267.08 377.92 247.41 364.58 254.95 327.87 257.5 339.31 255.76 323.93 260.08 302.92 219.26 268.63 226.69 259.41 240.75 237.4 247.54 225.41 243.41 216.58 258.08 189.25 241.63 216.81 245.26 226.74 231.63 242.81 217.63 267.69 215.9 292.06 222.82 299.54 208.82 332.68 224.16 300.85 226.37 309.13 224.74 299.79 217.13 290.81 219.32 272.6 238.43 286.27 255.43 304.94 253.74 324.32 245.35 348.99 245.6 368.21 265.13 378.54 258.97 386.58 261.63 391.47 254.74 419.92 245.8 421.89 226.63 422.03 207.86 410.39 193.08 412 182.19 416.11 164.86 418.67 160.08 405.33 147.38 400.5 130.88 390.33 120.62 390.72 129.7 383.44 117.69 390.83 106.11 398.17 99.94 398.67 74.08 408.25"
                fill="#cbbaf4" stroke="#7d50e8" stroke-miterlimit="100" />
            <animate
                attributeName="opacity"
                values="0;1;1;0.2;1;1;0;0;0;0;0;0;0;0;0"
                dur="4s"
                repeatCount="indefinite"
            />
        </g>
        <g>
            <polygon
                points="45.08 259.85 23.74 308.48 49.97 354.07 14.41 427.71 57.52 405.63 102.41 422.52 56.97 402.52 19.74 421.96 33.41 390.96 54.63 354.96 51.19 315.96 60.08 302.96 48.63 315.74 51.08 331.96 50.41 347.07 32.63 321.74 26.52 308.3 45.08 259.85"
                fill="#cbbaf4" stroke="#7d50e8" stroke-miterlimit="100" />
            <polygon
                points="240.11 195.74 261.44 147.11 235.22 101.52 270.77 27.88 227.66 49.96 182.77 33.07 228.22 53.07 265.44 33.63 251.77 64.63 230.55 100.63 233.99 139.63 225.11 152.63 236.55 139.85 234.11 123.63 234.77 108.52 252.55 133.85 258.66 147.3 240.11 195.74"
                fill="#cbbaf4" stroke="#7d50e8" stroke-miterlimit="100" />
            <animate
                attributeName="opacity"
                values="0;0;0;0;0;0;0;0;1;1;0.2;1;1;0;0"
                dur="4s"
                repeatCount="indefinite"
            />
        </g>
    </g>
</svg>