<?xml version="1.0" encoding="UTF-8"?>
<svg xmlns="http://www.w3.org/2000/svg" viewBox="0 0 192 192">
    <path
        d="M176.71,92.34l-9.87,5.55c-.31,11.4-3.31,22.12-8.39,31.56,24.3,32.67,24.64,31.08-13.01,17.26-10.2,9.97-23.4,16.88-38.11,19.26-9.24,29.42-8.68,31.25-18.69.56-10.88-1.09-21.03-4.64-29.89-10.09-48.15,33.98-42.17,31.54-19.37-17.51-6.59-8.62-11.24-18.8-13.32-29.88-2.55-1.05-14.16-2.62-8.46-7.3,0,0,7.27-3.79,7.27-3.79-.42-13.77,3.25-27.15,9.87-38.25C8.97,20.05,8.49,23.23,50.94,40.89c10.53-8.62,23.59-14.26,37.89-15.66,6.46-19.13,7.03-15.27,15.34.14,9.56,1.11,18.54,4.12,26.56,8.66,36.71-23.74,37.58-27.87,18.1,14.59,8.49,9.49,14.45,21.26,16.85,34.29,2.15,1.66,17.04,4.8,11.03,9.43Z"
        fill="#705941" />
    <path
        d="M154.56,129.19l17.85,24.42-28.53-10.26c-10.07,10.24-23.39,17.27-38.29,19.44l-7.34,22.72-7.62-22.21c-11.57-.87-22.32-4.66-31.53-10.64l-33.84,23.46,17.82-37.95c-7.05-8.79-11.94-19.39-13.87-30.98l-10.09-3.09,9.24-4.82c-.72-14.08,3.16-28,10.26-39.19l-18.26-28.46,31.59,13.03c10.55-9.01,23.91-14.83,38.59-15.96l4.89-12.95c2.85,5.21,4.88,8.92,7.16,13.09,9.94,1,19.25,4.15,27.44,8.99l28.87-18.66-13.75,30.8c8.83,9.46,14.97,21.47,17.2,34.81l12.19,5.35-11.27,6.34c-.07,11.89-3.23,23.05-8.71,32.72Z"
        fill="#d1b18a" />
    <circle cx="96" cy="96" r="62.62" fill="#f5ebbf" />
    <circle cx="96.19" cy="96.19" r="57.19" fill="#f0dfc0" />
    <path
        d="M46.31,133.32c3.38,11.05-.37,16.31-1.88,19.93.03.48.29.81.77.77,3.28-2.05,9.36-7.22,19.11-4.41l-2.15-15.49c-.06-.74-.12-.8-.92-.81h-14.93Z"
        fill="#f5ebbf" />
    <path
        d="M150.86,124.74c-1.54,6.71,2.39,12.91,2.44,13.29s-.22.73-.6.78c-.38.05-7.34-2.22-13.48,1.06l-1.66-12.69c-.07-.59-.03-.65.6-.78l12.69-1.66Z"
        fill="#f5ebbf" />
    <path
        d="M43.44,63.17c1.83-6.6-1.8-12.94-1.84-13.32-.03-.38.25-.72.63-.75.38-.03,7.19,2.53,13.44-.45l1.09,12.69c.04.59,0,.65-.63.75l-12.69,1.09Z"
        fill="#f5ebbf" />
    <path
        d="M124.44,40.53c12.6,1.94,14.92-1.36,17.98-3.29.44-.05.78.14.82.58-1.36,3.29-4.85,8.53-.19,17.44l-15.26,1.05c-.68.06-.75.01-.88-.71l-2.47-15.07Z"
        fill="#f5ebbf" />
    <circle cx="96" cy="96" r="51.75" fill="#f2eeda" />
</svg>