<?xml version="1.0" encoding="UTF-8"?>
<svg xmlns="http://www.w3.org/2000/svg" viewBox="0 0 96 96">
    <path
        d="M81,60.72c-.74,43.37-65.26,43.38-66,0-.08-25.27,15.81-33.15,29.87-57.41,1.39-2.41,4.87-2.41,6.27,0,13.84,23.88,29.95,31.73,29.87,57.41Z"
        fill="#864643" />
    <path
        d="M77.38,60.38c-.73,39.11-59.03,38.36-58.76-.76.31-22.13,14.23-28.94,26.59-50.36,2.89-5,2.79-4.83,5.58,0,12.32,21.26,26.67,28.22,26.6,51.12Z"
        fill="#f98283" />
    <path
        d="M73.8,60.08c-.57,33.6-50.55,33.59-51.11,0-.26-20.95,19.18-36.43,23.73-44.11,1.43-2.49,1.96-2.49,3.39,0,4.42,7.51,24.18,22.03,23.99,44.12Z"
        fill="#a05250" />
    <path
        d="M69.89,59.71c-.49,28.64-43.1,28.65-43.59,0-.21-18.27,16.91-32.07,20.79-38.77.89-1.58.91-1.61,1.81,0,3.76,6.46,21.23,19.82,20.98,38.78Z"
        fill="#c56662" />
    <path
        d="M59.52,62.12c.71.71.71,1.85,0,2.56l-3.04,3.04c-.71.71-1.85.71-2.56,0l-5.84-5.84-5.85,5.84c-.71.71-1.85.71-2.56,0l-3.04-3.04c-.71-.71-.71-1.84,0-2.56l5.85-5.84-5.85-5.85c-.71-.71-.71-1.85,0-2.56l3.04-3.04c.71-.71,1.85-.71,2.56,0l5.85,5.85,5.84-5.85c.71-.71,1.85-.71,2.56,0l3.04,3.04c.71.71.71,1.85,0,2.56l-5.84,5.85,5.84,5.84Z"
        fill="#a6544e" />
</svg>