<?xml version="1.0" encoding="UTF-8"?>
<svg xmlns="http://www.w3.org/2000/svg" viewBox="0 0 192 192">
    <path
        d="M184.88,97.33c-7.12,5.29-13.87,1.18-24.35,18.56-6.61,21.48-23.68,38.38-45.26,44.75-16.58,10.35-12.57,17.06-18.01,24.13-5.12,3.59-3.29-16.14-20.52-24.24-21.54-6.48-38.52-23.47-45.01-45-10.49-17.39-17.23-13.28-24.36-18.57-3.48-5.3,16.21-3.47,24.38-20.58v.16c6.54-21.63,23.67-38.65,45.36-45.04,16.94-10.35,12.93-17.05,18.18-24.12.48-.83,1.68-.83,2.15,0,5.46,7.1,1.4,13.82,18.18,24.24,21.77,6.56,38.9,23.85,45.22,45.72,8.01,16.37,27.5,14.82,24.03,20.01Z"
        fill="#7e4346" />
    <circle cx="96.19" cy="95.81" r="60.56" fill="#8f474a" stroke="#a35254" stroke-width="5.25" />
    <path
        d="M169.46,95.73c.35.2.35.71,0,.92-4.41,4.79-7.22,5.92-12.71,17.35v-36c5.3,11.44,8.48,12.94,12.71,17.73Z"
        fill="#a35254" />
    <path
        d="M23.14,95.73c-.35.2-.35.71,0,.92,4.41,4.79,7.22,5.92,12.71,17.35v-36c-5.3,11.44-8.48,12.94-12.71,17.73Z"
        fill="#a35254" />
    <path
        d="M95.73,169.03c.2.35.71.35.92,0,4.79-4.41,5.92-7.22,17.35-12.71h-36c11.44,5.3,12.94,8.48,17.73,12.71Z"
        fill="#a35254" />
    <path
        d="M95.73,22.76c.2-.35.71-.35.92,0,4.79,4.41,5.92,7.22,17.35,12.71h-36c11.44-5.3,12.94-8.48,17.73-12.71Z"
        fill="#a35254" />
    <circle cx="96.19" cy="96.19" r="52.5" fill="none" stroke="#a35254" stroke-width="2.62" />
    <path
        d="M161.07,34.26h-.08s-13.93,1.29-13.93,1.29c-.68.06-1.19.63-1.19,1.31v4.62c0,1.23-.48,2.41-1.35,3.29l-.08.08-9.46,9.15c-.87.84-2.04,1.32-3.26,1.32h-10.88c-.34,0-.67.13-.92.37L45.98,127.61c-.21.21-.35.48-.39.77l-2.94,22.12c-.11.83.57,1.54,1.4,1.48l22.76-1.7c.28-.02.54-.13.75-.3l.09-.08,72.96-73.33c.24-.25.38-.58.38-.93v-10.44c0-1.26.5-2.46,1.4-3.34l9.85-9.69c.88-.86,2.06-1.35,3.29-1.35h4.29c.66,0,1.21-.48,1.3-1.13v-.06s1.3-13.93,1.3-13.93c.07-.79-.57-1.46-1.35-1.43Z"
        fill="#b55b5c" stroke="#8f474a" stroke-width="3.38" />
    <path d="M113.01,43.94l-8.53,8.53,39.43,39.43,8.53-8.53-39.43-39.43Z" fill="#8f474a" />
    <path
        d="M119.49,46.26c-1.05-1.05-2.68-1.53-4.63-1.23-1.95.29-4.11,1.35-5.94,3.18-1.83,1.83-2.89,3.99-3.18,5.94-.29,1.95.18,3.58,1.23,4.63,1.05,1.05,2.68,1.53,4.63,1.23,1.95-.29,4.11-1.35,5.94-3.18,1.83-1.83,2.89-3.99,3.18-5.94.29-1.95-.18-3.58-1.23-4.63Z"
        fill="#b55b5c" stroke="#8f474a" stroke-width="3.38" />
    <path
        d="M150.24,77.01c-1.05-1.05-2.68-1.53-4.63-1.23-1.95.29-4.11,1.35-5.94,3.18-1.83,1.83-2.89,3.99-3.18,5.94-.29,1.95.18,3.58,1.23,4.63,1.05,1.05,2.68,1.53,4.63,1.23,1.95-.29,4.11-1.35,5.94-3.18,1.83-1.83,2.89-3.99,3.18-5.94.29-1.95-.18-3.58-1.23-4.63Z"
        fill="#b55b5c" stroke="#8f474a" stroke-width="3.38" />
    <path d="M115.49,50.51l-4.39,4.39,30.95,30.95,4.39-4.39-30.95-30.95Z" fill="#b55b5c" />
    <path
        d="M31.87,34.07h.08s13.93,1.29,13.93,1.29c.68.06,1.19.63,1.19,1.31v4.62c0,1.23.48,2.41,1.35,3.29l.08.08,9.46,9.15c.87.84,2.04,1.32,3.26,1.32h10.88c.34,0,.67.13.91.37l73.94,71.93c.21.21.35.48.39.77l2.94,22.12c.11.83-.57,1.54-1.4,1.48l-22.76-1.7c-.28-.02-.54-.13-.75-.3l-.09-.08L52.32,76.38c-.24-.25-.38-.58-.38-.93v-10.44c0-1.26-.5-2.46-1.4-3.34l-9.85-9.69c-.88-.86-2.06-1.35-3.29-1.35h-4.29c-.66,0-1.21-.48-1.3-1.13v-.06s-1.3-13.93-1.3-13.93c-.07-.79.57-1.46,1.35-1.43Z"
        fill="#b55b5c" stroke="#8f474a" stroke-width="3.38" />
    <path d="M79.93,43.76l8.53,8.53-39.43,39.43-8.53-8.53,39.43-39.43Z" fill="#8f474a" />
    <path
        d="M73.45,46.07c1.05-1.05,2.68-1.53,4.63-1.23,1.95.29,4.11,1.35,5.94,3.18,1.83,1.83,2.89,3.99,3.18,5.94.29,1.95-.18,3.58-1.23,4.63-1.05,1.05-2.68,1.53-4.63,1.23-1.95-.29-4.11-1.35-5.94-3.18-1.83-1.83-2.89-3.99-3.18-5.94-.29-1.95.18-3.58,1.23-4.63Z"
        fill="#b55b5c" stroke="#8f474a" stroke-width="3.38" />
    <path
        d="M42.7,76.82c1.05-1.05,2.68-1.53,4.63-1.23,1.95.29,4.11,1.35,5.94,3.18,1.83,1.83,2.89,3.99,3.18,5.94.29,1.95-.18,3.58-1.23,4.63-1.05,1.05-2.68,1.53-4.63,1.23-1.95-.29-4.11-1.35-5.94-3.18-1.83-1.83-2.89-3.99-3.18-5.94-.29-1.95.18-3.58,1.23-4.63Z"
        fill="#b55b5c" stroke="#8f474a" stroke-width="3.38" />
    <path d="M77.45,50.32l4.39,4.39-30.95,30.95-4.39-4.39,30.95-30.95Z" fill="#b55b5c" />
    <path
        d="M123,102.94c-.61,35.98-54.14,35.98-54.75,0-.07-20.96,13.12-27.5,24.77-47.62,1.16-2,4.04-2,5.2,0,11.48,19.81,24.85,26.32,24.77,47.63Z"
        fill="#864643" />
    <path
        d="M120,102.66c-.61,32.44-48.97,31.82-48.75-.63.26-18.36,11.8-24.01,22.06-41.78,2.4-4.15,2.31-4.01,4.63,0,10.22,17.64,22.13,23.41,22.06,42.41Z"
        fill="#f98283" />
    <path
        d="M117.03,102.42c-.47,27.87-41.93,27.87-42.4,0-.22-17.38,15.91-30.22,19.69-36.59,1.19-2.07,1.62-2.07,2.81,0,3.66,6.23,20.06,18.28,19.9,36.6Z"
        fill="#a05250" />
    <path
        d="M113.79,102.11c-.4,23.76-35.76,23.77-36.16,0-.17-15.16,14.03-26.61,17.25-32.16.74-1.31.75-1.33,1.51,0,3.12,5.36,17.61,16.44,17.41,32.17Z"
        fill="#c56662" />
    <path
        d="M105.18,104.1c.58.59.58,1.54,0,2.12l-2.53,2.53c-.58.59-1.54.59-2.12,0l-4.85-4.85-4.85,4.85c-.58.59-1.54.59-2.12,0l-2.53-2.53c-.58-.58-.58-1.53,0-2.12l4.85-4.85-4.85-4.85c-.58-.58-.58-1.54,0-2.12l2.53-2.53c.58-.58,1.54-.58,2.12,0l4.85,4.85,4.85-4.85c.58-.58,1.54-.58,2.12,0l2.53,2.53c.58.58.58,1.54,0,2.12l-4.85,4.85,4.85,4.85Z"
        fill="#a6544e" />
</svg>