<?xml version="1.0" encoding="UTF-8"?>
<svg xmlns="http://www.w3.org/2000/svg" viewBox="0 0 96 96">
    <polygon points="48 88.99 12.5 68.5 12.5 27.5 48 7.01 83.5 27.5 83.5 68.5 48 88.99"
        fill="#dccaae" stroke="#5e4632" stroke-miterlimit="10" />
    <polygon points="48 48 78 65.32 78 30.68 48 48" fill="#987f44" />
    <polygon points="48 48 18 65.32 18 30.68 48 48" fill="#987f44" />
    <polygon points="18 65.32 48 82.64 48 48 18 65.32" fill="#b3974d" />
    <polygon points="78 30.68 48 48 48 13.36 78 30.68" fill="#b3974d" />
    <polygon points="18 30.68 48 48 48 13.36 18 30.68" fill="#e7d566" />
    <polygon points="78 65.32 48 82.64 48 48 78 65.32" fill="#e7d566" />
    <polygon points="48 82.64 18 65.32 18 30.68 48 13.36 78 30.68 78 65.32 48 82.64" fill="none"
        opacity=".3" stroke="#5e4632" stroke-miterlimit="10" stroke-width="2" />
    <path
        d="M28.92,40.91c3.28,11.74,11.08,21.93,18.87,31.05,1.75.37,11.39-13.41,11.11-16.33-.43-.52-9.44,7.75-10.34,8.47-1.77.37-13.45-13.4-10.13-15.59.58-.76,7.62-6.55,8.13-6.46.7.12,2.18,1.86,1.93,2.85-.45,1.7-5.53,4.24-5.4,6.6.07,1.29,3.89,6.33,5.18,6.32,1.09,0,6.69-4.65,7.92-5.72.91-.79,4.59-5.22,5.43-4.64.85,2.74,4.38,8.09,3.6,10.91-2.69,4.29-12.55,15.04-17.73,16.65-7.42-5.05-21.36-18.71-24.49-27.15.17-1.28,4.91-7.85,5.92-6.95Z"
        fill="#fefefe" opacity=".45" />
    <path
        d="M67.09,55.09c-3.28-11.74-11.08-21.93-18.87-31.05-1.75-.37-11.39,13.41-11.11,16.33.43.52,9.45-7.76,10.35-8.49,1.43-.31,13.6,13.2,10.12,15.61-.58.76-7.62,6.55-8.13,6.46-.7-.12-2.18-1.86-1.93-2.85.45-1.7,5.53-4.24,5.4-6.6-.08-1.39-3.98-6.64-5.6-6.24-2.76.68-11.85,10.47-12.66,10.28-1.38-2.23-4.54-8.49-3.88-10.91,2.69-4.29,12.55-15.04,17.73-16.65,8.23,5.93,20.39,17.43,24.49,27.15-.17,1.28-4.9,7.85-5.91,6.95Z"
        fill="#fefefe" opacity=".45" />
</svg>