<?xml version="1.0" encoding="UTF-8"?>
<svg xmlns="http://www.w3.org/2000/svg" viewBox="0 0 96 96">
    <polygon points="48 88.99 12.5 68.5 12.5 27.5 48 7.01 83.5 27.5 83.5 68.5 48 88.99"
        fill="#dccaae" stroke="#5e4632" stroke-miterlimit="10" />
    <polygon points="48 48 78 65.32 78 30.68 48 48" fill="#466892" />
    <polygon points="48 48 18 65.32 18 30.68 48 48" fill="#466892" />
    <polygon points="18 65.32 48 82.64 48 48 18 65.32" fill="#527db3" />
    <polygon points="78 30.68 48 48 48 13.36 78 30.68" fill="#527db3" />
    <polygon points="18 30.68 48 48 48 13.36 18 30.68" fill="#6ea4e2" />
    <polygon points="78 65.32 48 82.64 48 48 78 65.32" fill="#6ea4e2" />
    <polygon points="48 82.64 18 65.32 18 30.68 48 13.36 78 30.68 78 65.32 48 82.64" fill="none"
        opacity=".3" stroke="#5e4632" stroke-miterlimit="10" stroke-width="2" />
</svg>