<?xml version="1.0" encoding="UTF-8"?>
<svg xmlns="http://www.w3.org/2000/svg" viewBox="0 0 96 96">
    <path
        d="M92.5,48.05c-.06.54-.58.98-1.06,1.34-3.79,3.09-9.4,5.41-11.02,10.33-3.6,10.11-11.81,17.83-21.91,21.25-4.02,1.99-6.08,6.68-8.84,10.1-.89,1.36-1.95,2.19-3.13.48-3.11-3.79-5.39-9.39-10.33-11.03-9.65-3.49-17.31-11.15-20.79-20.81-.53-1.52-1.29-2.96-2.52-4.01-11.5-9.69-13.39-5.09-.46-15.01,1.46-1.11,2.39-2.68,2.97-4.4,3.59-10.12,11.83-17.84,21.93-21.27,1.12-.48,2.08-1.16,2.87-2.06,2.24-2.69,4.26-5.63,6.32-8.5,1.14-1.63,2.2-.99,3.12.48,2.76,3.42,4.79,8.09,8.83,10.09,10.11,3.43,18.33,11.15,21.92,21.26,1.62,4.92,7.22,7.24,11.02,10.33.49.35,1,.8,1.06,1.34v.11Z"
        fill="#dccaae" stroke="#5e4632" stroke-miterlimit="0" />
    <path
        d="M85,48.05c-.05.34-.38.64-.69.87-2.51,1.75-5.07,3.58-7.45,5.5-.93.76-1.51,1.81-1.88,2.94-2.92,8.48-9.74,15.11-18.25,17.9-.81.31-1.51.75-2.1,1.37-2.02,2.4-3.86,5.05-5.69,7.64-.63.94-1.36,1.02-2.02,0-1.82-2.59-3.67-5.24-5.69-7.64-.59-.62-1.29-1.05-2.1-1.37-8.52-2.79-15.34-9.42-18.26-17.9-.37-1.13-.96-2.19-1.88-2.94-11.8-9.21-9.61-4.26.57-13.39.63-.67,1.02-1.53,1.32-2.4,2.92-8.49,9.75-15.11,18.26-17.9.81-.31,1.51-.74,2.1-1.37,2.02-2.4,3.86-5.05,5.69-7.64.63-.94,1.36-1.02,2.02,0,1.82,2.59,3.66,5.24,5.69,7.64.59.62,1.29,1.05,2.1,1.37,8.52,2.8,15.33,9.42,18.25,17.9.37,1.13.96,2.19,1.88,2.94,2.38,1.93,4.94,3.76,7.45,5.5.31.22.65.53.69.87v.11Z"
        fill="#c0811a" stroke="#a35e12" stroke-miterlimit="0" stroke-width="1.5" />
    <path
        d="M47.96,77c-.7-.12-1.28-1.81-1.65-2.61-10.81-26.88-43.76-24.53-30.86-27.82,15.29-4.29,25.59-12.65,30.86-25.07.36-.8.96-2.44,1.69-2.5.73.06,1.32,1.72,1.69,2.5,5.28,12.42,15.58,20.79,30.86,25.07,12.9,3.28-20.07.95-30.86,27.82-.37.81-.95,2.48-1.65,2.61h-.07Z"
        fill="#945a0e" stroke="#d78516" stroke-miterlimit="0" />
    <path
        d="M47.97,74c-.51-.11-.94-1.62-1.21-2.34-7.92-24.1-32.05-21.99-22.6-24.94,11.2-3.84,18.74-11.35,22.6-22.48.27-.72.7-2.19,1.24-2.24.54.05.97,1.54,1.24,2.24,3.86,11.14,11.41,18.64,22.6,22.48,9.45,2.94-14.7.85-22.6,24.94-.27.73-.7,2.23-1.21,2.34h-.05Z"
        fill="#ecb548" />
</svg>