<?xml version="1.0" encoding="UTF-8"?>
<svg xmlns="http://www.w3.org/2000/svg" viewBox="0 0 96 96">
    <polygon points="48 88.99 12.5 68.5 12.5 27.5 48 7.01 83.5 27.5 83.5 68.5 48 88.99"
        fill="#dccaae" stroke="#5e4632" stroke-miterlimit="10" />
    <polygon points="48 48 78 65.32 78 30.68 48 48" fill="#705880" />
    <polygon points="48 48 18 65.32 18 30.68 48 48" fill="#705880" />
    <polygon points="18 65.32 48 82.64 48 48 18 65.32" fill="#85679a" />
    <polygon points="78 30.68 48 48 48 13.36 78 30.68" fill="#85679a" />
    <polygon points="18 30.68 48 48 48 13.36 18 30.68" fill="#b68ec2" />
    <polygon points="78 65.32 48 82.64 48 48 78 65.32" fill="#b68ec2" />
    <polygon points="48 82.64 18 65.32 18 30.68 48 13.36 78 30.68 78 65.32 48 82.64" fill="none"
        opacity=".3" stroke="#5e4632" stroke-miterlimit="10" stroke-width="2" />
    <path
        d="M73,43.97c-2.38-2.48-3.4-6.13-6.47-7.99,1.47,7.54.64,16.61-7.98,18.97,3.16-9.88-10.38-9.1-11.85-1.13-1.82,13.99,15.14,13.68,22.81,6.63-5.04,10.89-19.53,15.15-30.41,10.98l9.97-1.5c-8.8-3.57-13.04-7.59-12.46-16.47,7.74,9.6,15.02-9.57,3.21-11.95-11.43-1.78-14.31,9.4-13.19,18.44-6.94-9.43-3.32-24.64,5.74-31.45-1.16,2.32-3.34,7.44-3.74,9.98,4.8-5.65,14.52-8.6,20.43-3.24-6.8,1.88-6.05,9.08.87,11.1,10.64,1.83,13.95-11.37,6.86-17.85l-8.22-5.49c11.84-.36,22.97,9.2,24.43,20.96Z"
        fill="#fefefe" opacity=".45" />
</svg>