<?xml version="1.0" encoding="UTF-8"?>
<svg xmlns="http://www.w3.org/2000/svg" viewBox="0 0 96 96">
    <polygon points="48 88.99 12.5 68.5 12.5 27.5 48 7.01 83.5 27.5 83.5 68.5 48 88.99"
        fill="#dccaae" stroke="#5e4632" stroke-miterlimit="10" />
    <polygon points="48 48 78 65.32 78 30.68 48 48" fill="#975844" />
    <polygon points="48 48 18 65.32 18 30.68 48 48" fill="#975844" />
    <polygon points="18 65.32 48 82.64 48 48 18 65.32" fill="#b0644b" />
    <polygon points="78 30.68 48 48 48 13.36 78 30.68" fill="#b0644b" />
    <polygon points="18 30.68 48 48 48 13.36 18 30.68" fill="#de785b" />
    <polygon points="78 65.32 48 82.64 48 48 78 65.32" fill="#de785b" />
    <polygon points="48 82.64 18 65.32 18 30.68 48 13.36 78 30.68 78 65.32 48 82.64" fill="none"
        opacity=".3" stroke="#5e4632" stroke-miterlimit="10" stroke-width="2" />
    <path
        d="M47.97,41.38c-1.56-3.82,1.94-8.51,5.61-9.69-1.45,5.56-.95,11.24,4.08,14.79-.06-1.55-1.9-2.69-2.31-4.06-.77-2.57,0-7.25,2.82-8.18.35,6.36,6.36,9.13,9.61,13.61,10.45,14.38-12.11,18.53-19.11,26.64-22.55-16.26-33.11-12.93-10.9-39.74-.64,5.6,6.22,8.52,10.2,10.71-9.61-.19-15.28,9.7-9.19,17.35-6.7-3.18-10.49-8.91-6.12-15.82-13.63,12.46,8.34,16.93,15.57,23.32l8.92-5.47c.11-.96-1.03-.39-1.55-.28-14.41,5.92-24.35-10.37-10.18-9.92-10.06,11.29,12.77,13.55,14.31,1.76.62-11.31-14.2-10.18-18.62-17.1-4.53-7.11,5.56-11.35,6.09-19.37.5-.9.84-.17,1.28.27,11.8,13.34-7.37,12.75-.51,21.16ZM58.18,63.82c7.86-2.94,14.85-9.45,5.86-16.32,1.65,7.65.97,11.86-5.86,16.32Z"
        fill="#fefefe" opacity=".45" />
    <path d="M50.53,60.76c3.25-6.47-3.39-10.72-9.18-7.65,5.4-13.08,24.19,1.97,9.18,7.65Z"
        fill="#fefefe" opacity=".45" />
</svg>