<?xml version="1.0" encoding="UTF-8"?>
<svg xmlns="http://www.w3.org/2000/svg" viewBox="0 0 96 96">
    <polygon points="48 88.99 12.5 68.5 12.5 27.5 48 7.01 83.5 27.5 83.5 68.5 48 88.99"
        fill="#dccaae" stroke="#5e4632" stroke-miterlimit="10" />
    <polygon points="48 48 78 65.32 78 30.68 48 48" fill="#afd1d1" />
    <polygon points="48 48 18 65.32 18 30.68 48 48" fill="#dca" />
    <polygon points="18 65.32 48 82.64 48 48 18 65.32" fill="#e7c5c5" />
    <polygon points="78 30.68 48 48 48 13.36 78 30.68" fill="#c5e7c5" />
    <polygon points="18 30.68 48 48 48 13.36 18 30.68" fill="#eec" />
    <polygon points="78 65.32 48 82.64 48 48 78 65.32" fill="#dde" />
    <polygon points="48 82.64 18 65.32 18 30.68 48 13.36 78 30.68 78 65.32 48 82.64" fill="none"
        opacity=".3" stroke="#5e4632" stroke-miterlimit="10" stroke-width="2" />
    <path
        d="M23.44,62.22c.09-7.3,3.97-14.56,9.77-18.93,4.44-3.35,11.02-6,16.65-5.5.63.06,2.99.59,3.31,1,.44.56,1.09,5.49.53,5.9-.17.13-3.24-.55-3.85-.6-9.22-.68-16.92,3.97-18.92,13.23-.18.84-.66,1.72.23,2.2,1.56.84,6.62,1.23,8.44,1.11.81-.05,2.57-.61,3.21-.42.26.07,3.76,2.86,4.21,3.26.23.21.5.21.39.66-7.9,2.53-16.56,1.8-23.96-1.9Z"
        fill="#fefefe" opacity=".55" />
    <circle cx="48.02" cy="48.94" r="4" fill="#fefefe" opacity=".55" />
    <path
        d="M41.81,45.72c.76,8.07,7.43,14.41,15.49,14.92,1.32.08,8.05-.45,8.64-1.41.71-1.14-3.14-7.52-4.1-8.73-.38-.48-1.72-1.53-1.82-1.92-.14-.53.4-2.65.44-3.43.06-1.07.1-2.4-.24-3.39.42-.32,3.02,1.8,3.5,2.21,4.44,3.84,8.25,10.16,9.48,15.92.52,2.44.36,2.35-1.87,3.35-8.28,3.72-21.13,3.51-27.9-3.18-2.06-2.04-5.92-8.04-6.42-10.84-.34-1.88,3.27-3.17,4.79-3.5Z"
        fill="#fefefe" opacity=".55" />
    <path
        d="M48.83,57.34c-.3-.51,1.62-2.34,2.03-2.92,3.86-5.57,4.64-13.66,1.33-19.65-.51-.93-3.36-5.06-4.4-4.85-1.52.3-5.32,6.52-5.56,8.3l-6.01,2.03c.25-5.63,3.52-10.64,7.69-14.22,1.25-1.07,3.7-3.22,5.35-2.55.86.35,4.26,3.66,5.02,4.53,5.91,6.7,7.48,15.88,4.25,24.3-.51,1.33-3.78,6.83-5,7.13-.47.11-4.56-1.84-4.7-2.09Z"
        fill="#fefefe" opacity=".55" />
</svg>