<?xml version="1.0" encoding="UTF-8"?>
<svg xmlns="http://www.w3.org/2000/svg" viewBox="0 0 96 96">
    <polygon points="48 88.99 12.5 68.5 12.5 27.5 48 7.01 83.5 27.5 83.5 68.5 48 88.99"
        fill="#dccaae" stroke="#5e4632" stroke-miterlimit="10" />
    <polygon points="48 48 78 65.32 78 30.68 48 48" fill="#5f7d7d" />
    <polygon points="48 48 18 65.32 18 30.68 48 48" fill="#5f7d7d" />
    <polygon points="18 65.32 48 82.64 48 48 18 65.32" fill="#7aa5a5" />
    <polygon points="78 30.68 48 48 48 13.36 78 30.68" fill="#7aa5a5" />
    <polygon points="18 30.68 48 48 48 13.36 18 30.68" fill="#9cdddd" />
    <polygon points="78 65.32 48 82.64 48 48 78 65.32" fill="#9cdddd" />
    <polygon points="48 82.64 18 65.32 18 30.68 48 13.36 78 30.68 78 65.32 48 82.64" fill="none"
        opacity=".3" stroke="#5e4632" stroke-miterlimit="10" stroke-width="2" />
    <path
        d="M48.49,19.66c1.18,2.91,4.86,9.98,7,12.74.59,1.41-1.58.13-2.16.29-1.22.34-4.99,8.55-4.32,9.44l3.49-1.5.75,3.5c1.43-1.09,6.23-7.06,5.52-8.48-.26-.53-1.19-.84-1.28-1.51l15.48-.5c.58.51-7.87,11.43-7.5,13.48-1.32-.15-.67-2.42-1.28-2.53-3.29-.55-7.42.6-10.7,1.03l3.49,2c-.67,1.48-2.18,2.06-3.5,2.74.02.85,9.58,1.47,10.71,1.28.61-.1-.04-2.38,1.28-2.53,1.57,4.89,5.04,8.81,7.5,13.23l-15.49-.25c.08-.67,1.01-.98,1.28-1.51.7-1.42-4.09-7.38-5.52-8.48-.64,4.3-.62,3.99-4.24,2-.76,1.02,3.19,9.13,4.32,9.44.87.24,2.41-1.28,2.16.29l-7.73,12.75c-1.76-4.26-4.79-9.11-7.24-12.75-.59-1.41,1.58-.13,2.16-.29,1.13-.32,5.07-8.4,4.32-9.44l-3.49,1.5-.75-3.5c-1.43,1.09-6.23,7.06-5.52,8.48.26.53,1.19.84,1.28,1.51l-15.48.5c-.58-.51,7.87-11.43,7.5-13.48,1.32.15.67,2.42,1.28,2.53,3.29.55,7.42-.6,10.7-1.03-.21-.8-1.46-.87-2.25-1.49-.3-.24-1.39-1.28-1.24-1.49l3.5-1.76c-.02-.85-9.58-1.47-10.71-1.28-.61.1.04,2.38-1.28,2.53-1.57-4.89-5.04-8.81-7.5-13.23l15.49.25c-.08.67-1.01.98-1.28,1.51-.7,1.42,4.09,7.38,5.52,8.48l.75-3.5,3.49,1.5c.67-.9-3.11-9.1-4.32-9.44-5.3,1.72.63-3.65,1.42-5.7,1.08-1.26,2.97-8.32,4.4-7.33ZM48.49,37.14c.22-.23,1.98-5.85,1.92-6.17-.09-.49-2.01-2.39-2.6-2.28-3.84,2.37-1.38,4.36-.37,7.75.2.43.22,1.56,1.04.7ZM39.01,43.12c-1.35-.63-4.22-5.76-4.52-5.98-3.84.88-3.91.39-2.87,4.39.46.53,6.11.75,7.4,1.59ZM64.98,38.14c-.12-.13-3.32-1.1-3.47-1-.3.22-3.17,5.36-4.52,5.98,1.29-.84,6.94-1.06,7.4-1.59.11-.13.71-3.27.6-3.4ZM39.01,53.12c-1.15.76-7.12,1.26-7.42,1.56-.12.12-.69,3.3-.57,3.42s3.32,1.1,3.47,1c.3-.22,3.17-5.36,4.52-5.98ZM64.41,54.69c-.3-.31-6.27-.8-7.42-1.56,1.35.63,4.22,5.76,4.52,5.98,3.84-.86,3.91-.42,2.9-4.42ZM48.49,59.11c-.82-.86-.84.27-1.04.7-1.02,3.4-3.47,5.38.37,7.75.59.1,2.51-1.79,2.6-2.28.06-.32-1.7-5.94-1.92-6.17Z"
        fill="#fefefe" opacity=".45" />
</svg>