<?xml version="1.0" encoding="UTF-8"?>
<svg xmlns="http://www.w3.org/2000/svg" viewBox="0 0 96 96">
    <rect x="20.5" y="20.5" width="55" height="55" rx="5.5" ry="5.5" fill="#a28a75"
        stroke="#cbb395" stroke-miterlimit="100" stroke-width="5" />
    <rect x="16.57" y="16.57" width="62.86" height="62.86" rx="5.92" ry="5.92"
        transform="translate(-19.88 48) rotate(-45)" fill="#cbb395" stroke="#a28a75"
        stroke-miterlimit="100" />
    <path
        d="M88.27,52.18l-10.62,10.62v8.91c0,3.27-2.66,5.93-5.93,5.93h-8.91l-10.62,10.62c-2.3,2.3-6.06,2.3-8.36,0l-10.62-10.62h-8.91c-3.27,0-5.93-2.66-5.93-5.93v-8.91l-10.62-10.62c-2.3-2.3-2.3-6.06,0-8.36l10.62-10.62v-8.91c0-3.27,2.66-5.93,5.93-5.93h8.91l10.62-10.62c2.3-2.3,6.06-2.3,8.36,0l10.62,10.62h8.91c3.27,0,5.93,2.66,5.93,5.93v8.91l10.62,10.62c2.3,2.3,2.3,6.06,0,8.36Z"
        fill="none" fill-rule="evenodd" stroke="#654" stroke-miterlimit="100" />
    <rect x="22.71" y="22.71" width="50.59" height="50.59" rx="3.07" ry="3.07"
        transform="translate(-19.88 48) rotate(-45)" fill="#fff" stroke="#9d7b5b"
        stroke-miterlimit="100" stroke-width="1.5" />
    <path
        d="M48.7,67.35l18.65-18.65c.33-.33,1.16-.61,1.9-.61l10.27-.09c1.79-.02,1.92,1.44,1.33,2.03l-30.82,30.82c-.58.58-2.04.45-2.03-1.33l.09-10.27c0-.73.28-1.56.61-1.9Z"
        fill="#ceb6e7" fill-rule="evenodd" />
    <path
        d="M28.48,48.61l18.91,18.92c.34.34.61,1.17.61,1.91l-.02,10.16c0,1.74-1.48,1.83-2.06,1.25l-30.76-30.76c-.58-.58-.49-2.06,1.25-2.06l10.16-.02c.74,0,1.57.27,1.91.61Z"
        fill="#8d6cb1" fill-rule="evenodd" />
    <path
        d="M67.73,47.4l-19.13-19.13c-.34-.34-.61-1.18-.6-1.91l.13-10.03c.02-1.7,1.51-1.75,2.09-1.17l30.62,30.62c.58.58.53,2.07-1.17,2.09l-10.03.13c-.73,0-1.57-.26-1.91-.6Z"
        fill="#4e78b0" fill-rule="evenodd" />
    <path
        d="M47.37,28.54l-18.83,18.83c-.34.34-1.17.61-1.9.61l-10.2.02c-1.76,0-1.86-1.47-1.28-2.05l30.79-30.79c.58-.58,2.06-.48,2.05,1.28l-.02,10.2c0,.74-.27,1.57-.61,1.9Z"
        fill="#cbe6f4" fill-rule="evenodd" />
    <rect x="34.14" y="34.14" width="27.72" height="27.72" rx="1.46" ry="1.46"
        transform="translate(-19.88 48) rotate(-45)" fill="#c9c2d3" />
</svg>