<?xml version="1.0" encoding="UTF-8"?>
<svg xmlns="http://www.w3.org/2000/svg" viewBox="0 0 96 96">
    <path
        d="M81.21,57.1c-1.23,2.94-2.21,6.13-4,8.82-.29.49-.55,1.02-.64,1.58-.05,3.08.84,6.22,1.29,9.28.11.59-.06,1.22-.77,1.15-2.95-.42-5.93-1.09-8.87-1.36-.64-.02-1.25.12-1.83.41-2.56,1.53-5.25,2.86-8.15,3.76-.81.27-1.55.71-2.11,1.36-12.09,14.96-4.63,12.91-16.81-.54-2.94-1.63-6.41-2.35-9.18-4.3-.71-.44-1.5-.73-2.34-.69-2.5.25-5.03.72-7.54,1.16-.8.15-1.64.35-1.94.01-.34-.3-.14-1.14.01-1.94.38-2.82,1.28-5.67,1.08-8.48-1.45-3.16-3.32-6.16-4.3-9.59-.26-.6-.65-1.12-1.14-1.56-3.11-2.53-6.41-4.91-9.75-7.21-1.02-.67-.89-1.31.16-1.94,3.29-2.26,6.52-4.61,9.58-7.1.65-.56,1.09-1.3,1.36-2.11.87-3.27,2.78-6.03,4.09-9.04.19-2.88-.72-5.8-1.12-8.68-.15-.74-.29-1.47.02-1.74.3-.34,1.14-.14,1.94.01,2.51.44,5.05.91,7.54,1.16.85.04,1.63-.25,2.34-.69,2.77-1.95,6.25-2.67,9.18-4.3,2.91-3.13,5.27-6.79,7.78-10.3.24-.36.62-.8,1.03-.71.36.1.68.53.91.88,2.26,3.3,4.61,6.53,7.1,9.6.44.49.95.88,1.56,1.14,2.85.98,5.67,2.11,8.19,3.7.71.44,1.5.73,2.34.69,2.56-.26,5.16-.74,7.74-1.2.74-.15,1.47-.29,1.74.02.31.28.17,1,.02,1.74-.46,2.58-.94,5.18-1.2,7.74-.04.85.25,1.63.69,2.34,1.59,2.52,2.72,5.34,3.7,8.19.26.6.65,1.12,1.14,1.56,3.06,2.49,6.29,4.83,9.58,7.1.9.57,1.31,1.25.16,1.94-3.56,2.58-7.41,4.97-10.49,8l-.1.15Z"
        fill="#dccaae" stroke="#5e4632" stroke-miterlimit="0" />
    <path
        d="M76.32,54.86c-1.2,2.77-2,5.81-3.71,8.33-.54.88-.86,1.87-.77,2.9.18,1.75.56,3.59.83,5.31.09.78-.08,1.25-.78,1.29-2.04-.12-4.13-.79-6.2-.86-.9-.01-1.74.31-2.51.78-2.15,1.32-4.5,2.37-6.96,3.12-1,.32-1.9.88-2.56,1.7-1.61,2.03-3.14,4.19-4.63,6.32-.51.68-.98,1.04-1.59.51-2.42-2.62-3.83-6.6-7.09-8.32-2.62-.87-5.22-1.87-7.52-3.33-.93-.58-2-.88-3.09-.75-1.64.2-3.31.51-4.94.79-1.09.19-1.62-.14-1.46-1.25.25-2.1,1-4.31.78-6.45-.41-1.75-1.83-3.37-2.49-5.13-.63-1.34-1.04-2.78-1.55-4.16-.5-1.37-1.72-2.23-2.9-3.11-1.63-1.25-3.38-2.46-5.03-3.64-.96-.67-.66-1.4.15-1.93,2.18-1.53,4.4-3.09,6.45-4.76.75-.65,1.24-1.5,1.55-2.43.76-3.11,2.63-5.68,3.8-8.55.32-2.14-.46-4.33-.72-6.45-.09-.57-.06-1.02.18-1.26.21-.21.59-.26,1.08-.2,2.1.25,4.31,1,6.45.78,1.35-.24,2.53-1.27,3.86-1.88,1.72-.92,3.59-1.51,5.43-2.16,1.37-.51,2.23-1.73,3.11-2.91,1.25-1.64,2.46-3.39,3.64-5.04.34-.43.68-.68,1.02-.61.35.08.67.43.91.76,1.78,2.39,3.34,5.07,5.47,7.13,2.76,1.57,6.09,2.14,8.69,4,2.44,1.58,5.4.23,8.03-.05.57-.09,1.03-.06,1.26.18.24.23.26.69.18,1.26-.28,1.62-.59,3.3-.79,4.93-.14,1.1.17,2.16.75,3.09,1.33,2.15,2.38,4.5,3.12,6.97.3.94.8,1.79,1.55,2.43,2.05,1.67,4.28,3.23,6.45,4.76.33.24.68.56.76.91.07.39-.28.77-.61,1.02-2.46,1.89-5.39,3.48-7.46,5.8l-.1.15Z"
        fill="#d7660e" stroke="#af3904" stroke-miterlimit="0" stroke-width="1.5" />
    <path
        d="M64.25,57.05c.12,2.95,1.78,5.76,3.06,8.75.24.63.81,1.58.36,2.13-.61.3-1.43-.2-2.04-.44-2.79-1.38-5.64-2.57-8.26-3.21-.73-.19-1.45,0-1.95.56-2.75,3.04-4.57,7.68-6.66,11.68-1.18,1.5-2.08-.88-2.51-1.82-1.52-3.7-3.4-7.07-5.58-9.73-.71-.86-1.85-.66-2.77-.34-2.56.73-5.33,1.92-7.77,2.91-2.88,1.24-2.15-.34-1.43-1.9,1.22-2.74,2.53-5.44,2.95-8.22,0-.25-.11-.52-.21-.74-2.65-2.37-6.24-3.7-9.49-5.16-4.8-1.96-8.33-2.77-8.44-3.6.19-.85,2.12-1.16,3.02-1.51,5.44-1.64,10.36-3.84,14.45-6.64,1.18-.88.49-2.26.15-3.44-.71-2.35-1.81-4.56-2.74-6.83-.78-2.04.91-1.55,2.07-.98,2.72,1.28,5.37,2.37,8.05,3.05.76.2,1.51,0,2.04-.6,2.33-2.87,4.19-6.21,5.72-9.77.42-.94,1.33-3.06,2.49-1.75,2.22,3.92,3.82,8.35,6.83,11.64.56.57,1.34.64,2.08.43,3.09-.74,6.25-2.38,9.33-3.6,1.37-.28.72.95.22,2.41-.69,1.72-1.76,4.3-2.32,6.09-.25.85-.67,1.73-.43,2.62.11.28.31.53.58.76,4.16,2.86,9.34,5.12,14.82,6.74,5.71,1.7,1.21,2.12-5.95,5.05-1.98.81-3.74,1.62-5.52,2.58-1.28.83-3.15,1.47-4.09,2.76l-.05.13Z"
        fill="#aa3e06" stroke="#dc5005" stroke-miterlimit="0" />
    <path
        d="M61.79,55.09c.58,2.54,1.52,5.21,2.94,8,.3.65.98,1.88.71,2.31l-.04.04c-.43.27-1.67-.42-2.31-.71-2.83-1.44-5.55-2.38-8.11-2.96-2.17,2.85-4.11,6.34-5.56,10.65-.31.81-.77,2.43-1.39,2.58h-.06c-.62-.15-1.08-1.78-1.39-2.58-1.43-4.26-3.35-7.72-5.49-10.55-8.21,1.91-12.34,6.03-9.88,1.22,1.32-2.69,2.28-5.39,2.89-8.09-8.91-6.52-17.25-6.27-10.61-8.47,3.98-1.41,7.52-3.27,10.61-5.59-.59-2.65-1.53-5.29-2.81-7.93-.3-.66-1.04-2.02-.7-2.42.4-.34,1.77.41,2.42.7,2.65,1.28,5.3,2.22,7.95,2.81,2.33-3.08,4.2-6.63,5.62-10.62.31-.79.78-2.39,1.42-2.48.64.09,1.11,1.71,1.42,2.48,1.41,3.99,3.28,7.53,5.61,10.61,2.69-.6,5.38-1.56,8.06-2.87,4.78-2.46.74,1.61-1.18,9.73,3.08,2.31,6.62,4.17,10.6,5.58,6.67,2.2-1.78,1.95-10.72,8.56Z"
        fill="#e67319" />
</svg>