<?xml version="1.0" encoding="UTF-8"?>
<svg xmlns="http://www.w3.org/2000/svg" xmlns:xlink="http://www.w3.org/1999/xlink"
    viewBox="0 0 96 64">
    <defs>
        <filter id="b" x="16" y="0" width="64" height="64" filterUnits="userSpaceOnUse">
            <feOffset dx="0" dy="0" />
            <feGaussianBlur result="c" stdDeviation="5" />
            <feFlood flood-color="#f49720" flood-opacity="1" />
            <feComposite in2="c" operator="in" />
            <feComposite in="SourceGraphic" />
        </filter>
        <filter id="d" x="11" y="0" width="74" height="64" filterUnits="userSpaceOnUse">
            <feOffset dx="0" dy="0" />
            <feGaussianBlur result="e" stdDeviation="5" />
            <feFlood flood-color="#f49720" flood-opacity="1" />
            <feComposite in2="e" operator="in" />
            <feComposite in="SourceGraphic" />
        </filter>
        <filter id="f" x="21.95" y="11.95" width="53" height="41" filterUnits="userSpaceOnUse">
            <feOffset dx="0" dy="0" />
            <feGaussianBlur result="g" stdDeviation="1.02" />
            <feFlood flood-color="#ffec6f" flood-opacity="1" />
            <feComposite in2="g" operator="in" />
            <feComposite in="SourceGraphic" />
        </filter>
    </defs>
    <path
        d="M67.38,33.34c-1.25,1.15-3.46,1.79-4.06,3.56-1.55,4.51-4.94,8.3-9.43,10.03-.76.31-1.5.54-2.11,1.09-1.29.96-1.84,3.94-3.85,3.95-1.82-.06-2.51-3.14-3.84-4.06-.58-.47-1.28-.69-1.98-.98-4.12-1.62-7.41-4.92-9.03-9.03-.31-.76-.54-1.5-1.09-2.11-2.02-1.91-6.62-3.25-2.02-6.08,1.64-.84,2.6-1.89,3.1-3.58,1.71-4.44,5.42-7.82,9.89-9.39,2.58-.55,3.25-6.45,6.3-4.15,1.2,1.22,1.86,3.43,3.62,4.08,4.52,1.59,8.32,4.95,10.04,9.47.31.76.54,1.5,1.08,2.11,1.29,1.43,5.56,2.68,3.37,5.11Z"
        fill="#b8a788" stroke="#8e7455" stroke-miterlimit="0" stroke-width="2" />
    <path
        d="M32.13,32.25c-.17-.13-.17-.38,0-.51,1.32-.99,6.14-4.65,8.55-7.06,2.42-2.42,6.08-7.24,7.06-8.55.13-.17.38-.17.51,0,.99,1.32,4.65,6.14,7.06,8.55,2.42,2.42,7.24,6.08,8.55,7.06.17.13.17.38,0,.51-1.32.99-6.14,4.65-8.55,7.06-2.42,2.42-6.08,7.24-7.06,8.55-.13.17-.38.17-.51,0-.99-1.32-4.65-6.14-7.06-8.55-2.42-2.42-7.24-6.08-8.55-7.06Z"
        fill="#f49720" filter="url(#b)" stroke="#d68135" stroke-miterlimit="10" />
    <path
        d="M69.74,32.09c-.48,1.15-10.77,1.54-14.27,3.62-3.11,1.67-4.82,4.82-5.7,8.2-1.59,6.82-2.1,6-3.6-.23-2.21-9.02-9.08-9.37-16.66-10.59-1.94-.32-3.29-.7-3.22-1.11.01-.14.18-.28.49-.41,7.31-2.17,16.92-.44,19.46-11.48,1.59-6.82,2.1-6,3.6.23.92,3.38,2.68,6.46,5.82,8.07,3.66,2.13,13.18,2.07,14.11,3.66v.04Z"
        fill="#ffffdf" filter="url(#d)" />
    <path
        d="M70.12,32.09c-.48,1.17-10.96,1.57-14.53,3.69-3.16,1.7-4.9,4.91-5.8,8.35-1.61,6.94-2.14,6.1-3.67-.24-2.25-9.18-9.25-9.54-16.96-10.78-1.97-.32-3.35-.71-3.28-1.13.01-.14.19-.29.5-.42,7.44-2.21,17.22-.45,19.81-11.69,1.61-6.94,2.14-6.1,3.67.24.93,3.44,2.73,6.58,5.92,8.21,3.72,2.17,13.41,2.1,14.36,3.73v.04Z"
        fill="#ffffdf" filter="url(#f)" />
</svg>