<?xml version="1.0" encoding="UTF-8"?>
<svg xmlns="http://www.w3.org/2000/svg" xmlns:xlink="http://www.w3.org/1999/xlink"
    viewBox="0 0 96 64">
    <defs>
        <filter id="b" x="2" y="-4" width="92" height="73" filterUnits="userSpaceOnUse">
            <feOffset dx="0" dy="0" />
            <feGaussianBlur result="c" stdDeviation="5" />
            <feFlood flood-color="#f49720" flood-opacity="1" />
            <feComposite in2="c" operator="in" />
            <feComposite in="SourceGraphic" />
        </filter>
        <filter id="d" x="2" y="-4" width="92" height="73" filterUnits="userSpaceOnUse">
            <feOffset dx="0" dy="0" />
            <feGaussianBlur result="e" stdDeviation="5" />
            <feFlood flood-color="#f49720" flood-opacity="1" />
            <feComposite in2="e" operator="in" />
            <feComposite in="SourceGraphic" />
        </filter>
        <filter id="f" x="14" y="8" width="68" height="49" filterUnits="userSpaceOnUse">
            <feOffset dx="0" dy="0" />
            <feGaussianBlur result="g" stdDeviation="1" />
            <feFlood flood-color="#ffec6f" flood-opacity="1" />
            <feComposite in2="g" operator="in" />
            <feComposite in="SourceGraphic" />
        </filter>
    </defs>
    <path
        d="M67.41,33.35c-.51.49-1.4,1-2.05,1.4-1.3.78-1.86,1.7-2.37,3.12-.48,1.2-1.14,2.34-.9,3.69.13,1.48,1.25,3.4,0,4.64-1.82,1.35-4.27-.78-6.2,0-1.63.68-3.61,1.09-4.72,2.56-2.07,3.6-3.65,4.83-6,.5-.77-1.35-1.93-1.85-3.29-2.36-1.04-.45-2.16-1-3.31-.83-1.72.29-5.06,1.62-5.23-1.23-.04-1.22.61-2.59.63-3.77.05-1.02-.46-2.01-.85-2.93-.46-1.18-.87-2.34-2.06-3.1-.52-.36-1.1-.68-1.63-1.03-1.27-.67-2.01-2.32-.77-3.4,1.2-1.09,3.07-1.65,3.76-3.12.53-1.11,1.02-2.25,1.41-3.41.8-2.08-2.36-6.63,1.59-6.74,1.32.06,2.79.77,3.97.61,1.51-.26,2.94-1,4.31-1.66,1.75-.83,2.09-4.14,4.32-4.29,1.47.07,2.08,1.69,2.81,2.75.77,1.35,1.96,1.86,3.33,2.38,1.17.52,2.31,1.07,3.65.75,1.39-.21,3.13-1.11,4.34-.03.65.63.57,1.72.37,2.55-.3,1.29-.73,2.63-.27,3.91.46,1.12.87,2.29,1.44,3.35.97,1.93,5.89,2.79,3.82,5.59l-.09.09Z"
        fill="#b8a788" stroke="#8e7455" stroke-miterlimit="10" stroke-width="2" />
    <path
        d="M60.94,44.69c-.18.59-1.08.52-2.13.14-2.37-.81-6.26-2.22-7.57,1.18-1.2,2.43-1.93,4.79-2.55,6.33-.14.29-.32.59-.6.67-.45.05-.7-.55-.88-.92-.92-1.82-1.75-6.09-4.06-7.87-2.22-1.15-4.85.54-7.01.92-3.45.31,3.21-7.85-1.52-9.8-6.24-2.79-17.61-3.46-16.98-3.43.15-.03,9.12-.43,16.08-2.9.8-.29,1.66-.71,2.14-1.36,1.32-1.79,0-4.79-.48-6.74-.3-.88-.47-1.7-.14-2.05.25-.3.8-.3,1.48-.1,1.29.41,2.84.93,4.27,1.14,4.04.77,4.94-5.44,6.19-7.92.18-.38.4-.9.82-.95.42.06.62.59.79.97,1.16,2.52,1.99,8.65,6.07,7.93,1.49-.21,3.11-.74,4.46-1.17.68-.19,1.23-.19,1.48.11.3.33.18,1.08-.1,1.88-.91,2.96-2.53,7.08,1.61,8.21,6.41,2.29,14.43,2.82,15.83,2.91,1.85.07-13.13.62-17.83,4.29-1.94,2.33.7,5.98.65,8.44l-.03.09Z"
        fill="#ffffdf" filter="url(#b)" />
    <path
        d="M60.94,44.69c-.18.59-1.08.52-2.13.14-2.37-.81-6.26-2.22-7.57,1.18-1.2,2.43-1.93,4.79-2.55,6.33-.14.29-.32.59-.6.67-.45.05-.7-.55-.88-.92-.92-1.82-1.75-6.09-4.06-7.87-2.22-1.15-4.85.54-7.01.92-3.45.31,3.21-7.85-1.52-9.8-6.24-2.79-17.61-3.46-16.98-3.43.15-.03,9.12-.43,16.08-2.9.8-.29,1.66-.71,2.14-1.36,1.32-1.79,0-4.79-.48-6.74-.3-.88-.47-1.7-.14-2.05.25-.3.8-.3,1.48-.1,1.29.41,2.84.93,4.27,1.14,4.04.77,4.94-5.44,6.19-7.92.18-.38.4-.9.82-.95.42.06.62.59.79.97,1.16,2.52,1.99,8.65,6.07,7.93,1.49-.21,3.11-.74,4.46-1.17.68-.19,1.23-.19,1.48.11.3.33.18,1.08-.1,1.88-.91,2.96-2.53,7.08,1.61,8.21,6.41,2.29,14.43,2.82,15.83,2.91,1.85.07-13.13.62-17.83,4.29-1.94,2.33.7,5.98.65,8.44l-.03.09Z"
        fill="#ffffdf" filter="url(#d)" />
    <path
        d="M60.94,44.69c-.18.59-1.08.52-2.13.14-2.37-.81-6.26-2.22-7.57,1.18-1.2,2.43-1.93,4.79-2.55,6.33-.14.29-.32.59-.6.67-.45.05-.7-.55-.88-.92-.92-1.82-1.75-6.09-4.06-7.87-2.22-1.15-4.85.54-7.01.92-3.45.31,3.21-7.85-1.52-9.8-6.24-2.79-17.61-3.46-16.98-3.43.15-.03,9.12-.43,16.08-2.9.8-.29,1.66-.71,2.14-1.36,1.32-1.79,0-4.79-.48-6.74-.3-.88-.47-1.7-.14-2.05.25-.3.8-.3,1.48-.1,1.29.41,2.84.93,4.27,1.14,4.04.77,4.94-5.44,6.19-7.92.18-.38.4-.9.82-.95.42.06.62.59.79.97,1.16,2.52,1.99,8.65,6.07,7.93,1.49-.21,3.11-.74,4.46-1.17.68-.19,1.23-.19,1.48.11.3.33.18,1.08-.1,1.88-.91,2.96-2.53,7.08,1.61,8.21,6.41,2.29,14.43,2.82,15.83,2.91,1.85.07-13.13.62-17.83,4.29-1.94,2.33.7,5.98.65,8.44l-.03.09Z"
        fill="#ffffdf" filter="url(#f)" />
    <circle cx="48" cy="32" r="8.5" fill="#ffffdf" stroke="#f98213" stroke-miterlimit="10"
        stroke-width="3.5" />
</svg>