<?xml version="1.0" encoding="UTF-8"?>
<svg xmlns="http://www.w3.org/2000/svg" xmlns:xlink="http://www.w3.org/1999/xlink"
    viewBox="0 0 96 64">
    <path
        d="M67.38,33.34c-1.25,1.15-3.46,1.79-4.06,3.56-1.55,4.51-4.94,8.3-9.43,10.03-.76.31-1.5.54-2.11,1.09-1.29.96-1.84,3.94-3.85,3.95-1.82-.06-2.51-3.14-3.84-4.06-.58-.47-1.28-.69-1.98-.98-4.12-1.62-7.41-4.92-9.03-9.03-.31-.76-.54-1.5-1.09-2.11-2.02-1.91-6.62-3.25-2.02-6.08,1.64-.84,2.6-1.89,3.1-3.58,1.71-4.44,5.42-7.82,9.89-9.39,2.58-.55,3.25-6.45,6.3-4.15,1.2,1.22,1.86,3.43,3.62,4.08,4.52,1.59,8.32,4.95,10.04,9.47.31.76.54,1.5,1.08,2.11,1.29,1.43,5.56,2.68,3.37,5.11Z"
        fill="#b8a788" stroke="#8e7455" stroke-miterlimit="0" stroke-width="2" />
    <path
        d="M32.81,32.72c-.8-2.11,2.26-3.35,3.47-4.7,3.4-2.84,6.32-5.98,9.16-9.41,3.04-4.39,4.62-.32,6.96,2.14,2.72,3.26,5.7,5.95,8.98,8.66,3.73,2.68,1.51,3.94-1.14,6.12-3.26,2.66-6.03,5.43-8.69,8.69-2.16,2.62-3.42,4.9-6.11,1.14-2.43-2.92-4.82-5.67-7.65-8.11-1.55-1.5-3.58-2.75-4.9-4.39l-.07-.13Z"
        fill="#957c5d" />
    <path
        d="M34.38,32.22c-.15-.11-.15-.33,0-.44,1.13-.85,5.28-3.99,7.35-6.07,2.08-2.08,5.22-6.22,6.07-7.35.11-.15.33-.15.44,0,.85,1.13,3.99,5.28,6.07,7.35,2.08,2.08,6.22,5.22,7.35,6.07.15.11.15.33,0,.44-1.13.85-5.28,3.99-7.35,6.07-2.08,2.08-5.22,6.22-6.07,7.35-.11.15-.33.15-.44,0-.85-1.13-3.99-5.28-6.07-7.35-2.08-2.08-6.22-5.22-7.35-6.07Z"
        fill="#a68c73" stroke="#e0d1b1" stroke-miterlimit="10" stroke-width="2.5" />
</svg>