<?xml version="1.0" encoding="UTF-8"?>
<svg xmlns="http://www.w3.org/2000/svg" xmlns:xlink="http://www.w3.org/1999/xlink"
    viewBox="0 0 56 216">
    <defs>
        <filter id="b" x="1" y="1" width="54" height="54" filterUnits="userSpaceOnUse">
            <feOffset dx="0" dy="0" />
            <feGaussianBlur result="c" stdDeviation="3" />
            <feFlood flood-color="#cd9a3c" flood-opacity="1" />
            <feComposite in2="c" operator="in" />
            <feComposite in="SourceGraphic" />
        </filter>
        <filter id="d" x="7" y="7" width="42" height="42" filterUnits="userSpaceOnUse">
            <feOffset dx="0" dy="0" />
            <feGaussianBlur result="e" stdDeviation="1" />
            <feFlood flood-color="#ffec6f" flood-opacity="1" />
            <feComposite in2="e" operator="in" />
            <feComposite in="SourceGraphic" />
        </filter>
    </defs>
    <path
        d="M28,206.12c-.21,0-.58-.12-1.29-.83l-10-10c-.51-.51-.86-.86-1.12-1.15-.26-.29-.38-.46-.44-.59-.12-.24-.14-.48-.14-1.55v-12c0-.18.1-.43.33-.67.23-.24.49-.33.67-.33h24.01c.17,0,.42.1.66.33.23.24.33.49.33.67v12c0,1.08-.02,1.31-.14,1.55-.07.13-.18.3-.44.59-.13.14-.28.3-.47.49l-.65.66-10,10c-.71.71-1.09.83-1.29.83Z"
        fill="#ecf8ff" stroke="#5757e0" stroke-width="2" />
    <path
        d="M16,151h24c.17,0,.43.1.67.33.23.24.33.49.33.67v24c0,.18-.1.43-.33.67-.23.24-.49.33-.67.33h-24c-.17,0-.43-.1-.67-.33-.23-.24-.33-.49-.33-.67v-24c0-.18.1-.43.33-.67.23-.24.49-.33.67-.33Z"
        fill="#e1f8ff" stroke="#5757e0" stroke-width="2" />
    <path
        d="M16,123h24c.17,0,.43.1.67.33.23.24.33.49.33.67v24c0,.18-.1.43-.33.67-.23.24-.49.33-.67.33h-24c-.17,0-.43-.1-.67-.33-.23-.24-.33-.49-.33-.67v-24c0-.18.1-.43.33-.67.23-.24.49-.33.67-.33Z"
        fill="#dbf2ff" stroke="#5757e0" stroke-width="2" />
    <path
        d="M16,95h24c.17,0,.43.1.67.33.23.23.33.49.33.67v24c0,.18-.1.43-.33.67-.23.24-.49.33-.67.33h-24c-.17,0-.43-.1-.67-.33-.23-.24-.33-.49-.33-.67v-24c0-.17.1-.43.33-.67.23-.23.49-.33.67-.33Z"
        fill="#d5d9ff" stroke="#5757e0" stroke-width="2" />
    <path
        d="M16,67h24c.17,0,.43.1.67.33.23.23.33.49.33.67v24c0,.17-.1.43-.33.67-.23.23-.49.33-.67.33h-24c-.17,0-.43-.1-.67-.33-.23-.23-.33-.49-.33-.67v-24c0-.17.1-.43.33-.67.23-.23.49-.33.67-.33Z"
        fill="#dcd5ff" stroke="#5757e0" stroke-width="2" />
    <path
        d="M28,38c-.21,0-.58.12-1.29.83l-10,10c-.51.51-.86.86-1.12,1.15-.26.29-.38.46-.44.59-.12.24-.14.48-.14,1.55v12c0,.17.1.43.33.67.23.23.49.33.67.33h24.01c.17,0,.42-.1.66-.33.23-.24.33-.49.33-.67v-12c0-1.08-.02-1.31-.14-1.55-.07-.13-.18-.3-.44-.59-.13-.14-.28-.3-.47-.49l-.65-.66-10-10c-.71-.71-1.09-.83-1.29-.83Z"
        fill="#e4dcff" stroke="#5757e0" stroke-width="2" />
    <path
        d="M13,30q-3-2,0-4c3-2,5-4,7-6s4-4,6-7q2-3,4,0c2,3,4,5,6,7s4,4,7,6,3,2,0,4-5,4-7,6-4,4-6,7q-2,3-4,0c-2-3-4-5-6-7s-4-4-7-6Z"
        fill="#ffffa5" filter="url(#b)" />
    <path
        d="M13,30q-3-2,0-4c3-2,5-4,7-6s4-4,6-7q2-3,4,0c2,3,4,5,6,7s4,4,7,6,3,2,0,4-5,4-7,6-4,4-6,7q-2,3-4,0c-2-3-4-5-6-7s-4-4-7-6Z"
        fill="#ffffa5" filter="url(#d)" />
</svg>