<?xml version="1.0" encoding="UTF-8"?>
<svg xmlns="http://www.w3.org/2000/svg" xmlns:xlink="http://www.w3.org/1999/xlink"
    viewBox="0 0 96 64">
    <defs>
        <filter id="b" x="17" y="1" width="62" height="62" filterUnits="userSpaceOnUse">
            <feOffset dx="0" dy="0" />
            <feGaussianBlur result="c" stdDeviation="5" />
            <feFlood flood-color="#f49720" flood-opacity="1" />
            <feComposite in2="c" operator="in" />
            <feComposite in="SourceGraphic" />
        </filter>
        <filter id="d" x="12" y="0" width="73" height="64" filterUnits="userSpaceOnUse">
            <feOffset dx="0" dy="0" />
            <feGaussianBlur result="e" stdDeviation="5" />
            <feFlood flood-color="#f49720" flood-opacity="1" />
            <feComposite in2="e" operator="in" />
            <feComposite in="SourceGraphic" />
        </filter>
        <filter id="f" x="24" y="12" width="49" height="40" filterUnits="userSpaceOnUse">
            <feOffset dx="0" dy="0" />
            <feGaussianBlur result="g" stdDeviation="1" />
            <feFlood flood-color="#ffec6f" flood-opacity="1" />
            <feComposite in2="g" operator="in" />
            <feComposite in="SourceGraphic" />
        </filter>
    </defs>
    <path
        d="M67.41,33.35c-.51.49-1.4,1-2.05,1.4-1.3.78-1.86,1.7-2.37,3.12-.48,1.2-1.14,2.34-.9,3.69.13,1.48,1.25,3.4,0,4.64-1.82,1.35-4.27-.78-6.2,0-1.63.68-3.61,1.09-4.72,2.56-2.07,3.6-3.65,4.83-6,.5-.77-1.35-1.93-1.85-3.29-2.36-1.04-.45-2.16-1-3.31-.83-1.72.29-5.06,1.62-5.23-1.23-.04-1.22.61-2.59.63-3.77.05-1.02-.46-2.01-.85-2.93-.46-1.18-.87-2.34-2.06-3.1-.52-.36-1.1-.68-1.63-1.03-1.27-.67-2.01-2.32-.77-3.4,1.2-1.09,3.07-1.65,3.76-3.12.53-1.11,1.02-2.25,1.41-3.41.8-2.08-2.36-6.63,1.59-6.74,1.32.06,2.79.77,3.97.61,1.51-.26,2.94-1,4.31-1.66,1.75-.83,2.09-4.14,4.32-4.29,1.47.07,2.08,1.69,2.81,2.75.77,1.35,1.96,1.86,3.33,2.38,1.17.52,2.31,1.07,3.65.75,1.39-.21,3.13-1.11,4.34-.03.65.63.57,1.72.37,2.55-.3,1.29-.73,2.63-.27,3.91.46,1.12.87,2.29,1.44,3.35.97,1.93,5.89,2.79,3.82,5.59l-.09.09Z"
        fill="#b8a788" stroke="#8e7455" stroke-miterlimit="10" stroke-width="2" />
    <path
        d="M62.94,32.38c-.88,1.34-2.81,2.86-4.05,4.23-2.13,1.37.81,5.91-2.89,5.53-.86.06-1.92-.14-2.7.14-1.12.92-3.06,3.03-4.29,4.2-.73.81-1.51.68-2.19-.12-.78-.78-2.39-2.39-3.34-3.34-.46-.45-.77-.9-1.44-.88-.92-.03-1.95.01-2.86-.03-2.8-.24-.41-4.01-1.96-5.35-5.61-5.75-5.64-3.78,0-9.54,1.29-1.25-.15-3.64.93-4.97.83-.69,2.3-.3,3.35-.4.7,0,1.14.03,1.63-.55,1.23-1,3.67-4.24,4.85-4.34,1.2.18,3.57,3.33,4.82,4.34.47.55.89.55,1.55.55,4.45-.27,3.54.72,3.71,4.4.18,1.31,5.58,4.75,4.87,6.12Z"
        fill="#f49720" filter="url(#b)" stroke="#d68135" stroke-miterlimit="10" stroke-width=".5" />
    <path
        d="M69.28,32.02c.29.9-6.71,1.47-10.4,2.59-1.82.49-2.67,2.07-2.06,3.91.17.77.68,1.98.17,2.49-1.36.55-3.27-.9-4.76-.35-2.85.53-2.34,6.33-4.26,7.47-.46-.04-.91-1.26-1.32-2.65-1.13-4.47-1.96-5.8-6.61-4.33-1.1.2-1.36-.24-1.15-1.3.58-1.93,1.03-4.41-1.45-5.16-2.84-.97-6.03-1.12-8.96-1.89-1.68-.46-1.43-1.16-.12-1.54,2.26-.66,4.74-.88,7.07-1.42,1.54-.32,3.11-.76,3.64-1.88.62-1.18.06-2.62-.19-3.81-.21-1.04.02-1.51,1.1-1.33,5.15,1.66,5.56-.28,6.83-4.86.38-1.2.79-2.13,1.21-2.1,1.89,1.31,1.35,7.78,5.01,7.54,1.22.13,2.9-.96,3.95-.4.51.53-.03,1.79-.18,2.58-.7,2.25.75,3.68,2.81,4.04,3.12.74,6.94,1.11,8.74,1.77.39.14.78.28.93.59v.04Z"
        fill="#ffffdf" filter="url(#d)" />
    <path
        d="M69.28,32.02c.29.9-6.71,1.47-10.4,2.59-1.82.49-2.67,2.07-2.06,3.91.17.77.68,1.98.17,2.49-1.36.55-3.27-.9-4.76-.35-2.85.53-2.34,6.33-4.26,7.47-.46-.04-.91-1.26-1.32-2.65-1.13-4.47-1.96-5.8-6.61-4.33-1.1.2-1.36-.24-1.15-1.3.58-1.93,1.03-4.41-1.45-5.16-2.84-.97-6.03-1.12-8.96-1.89-1.68-.46-1.43-1.16-.12-1.54,2.26-.66,4.74-.88,7.07-1.42,1.54-.32,3.11-.76,3.64-1.88.62-1.18.06-2.62-.19-3.81-.21-1.04.02-1.51,1.1-1.33,5.15,1.66,5.56-.28,6.83-4.86.38-1.2.79-2.13,1.21-2.1,1.89,1.31,1.35,7.78,5.01,7.54,1.22.13,2.9-.96,3.95-.4.51.53-.03,1.79-.18,2.58-.7,2.25.75,3.68,2.81,4.04,3.12.74,6.94,1.11,8.74,1.77.39.14.78.28.93.59v.04Z"
        fill="#ffffdf" filter="url(#f)" />
</svg>