<?xml version="1.0" encoding="UTF-8"?>
<svg xmlns="http://www.w3.org/2000/svg" xmlns:xlink="http://www.w3.org/1999/xlink"
    viewBox="0 0 192 192">
    <defs>
        <radialGradient id="b" cx="97.63" cy="91.86" fx="97.63" fy="91.86" r="80.14"
            gradientTransform="translate(-13.7 200.97) scale(1.13 -1.13)"
            gradientUnits="userSpaceOnUse">
            <stop offset=".2" stop-color="#e75a3d" />
            <stop offset=".5" stop-color="#b94129" stop-opacity=".9" />
            <stop offset=".63" stop-color="#b84028" stop-opacity=".89" />
            <stop offset=".71" stop-color="#b84028" stop-opacity=".84" />
            <stop offset=".77" stop-color="#b84028" stop-opacity=".76" />
            <stop offset=".83" stop-color="#b84028" stop-opacity=".65" />
            <stop offset=".88" stop-color="#b84028" stop-opacity=".51" />
            <stop offset=".93" stop-color="#b74028" stop-opacity=".34" />
            <stop offset=".97" stop-color="#b74028" stop-opacity=".13" />
            <stop offset="1" stop-color="#b74028" stop-opacity="0" />
        </radialGradient>
    </defs>
    <g>
        <circle cx="96" cy="96" r="90" fill="url(#b)" />
        <path
            d="M27,62.71c.3,1.1,2.16,12.51,7.54,8.84,1.49-.76,2.36-1.83,2.5-2,.45-.56,2.55-2.37,6.75-6,8.15-6.93,15.05-9.89,23.05-14.28,3.01-3.19-.52-3.55-2.05-3.64-2.76,0-7.8-1.18-2.1-6.18,7.37-6.74,19.65-8.69,21.71-9,27.78-4.23,55.07,6.29,71.31,35.43,28.55,59.4-31.04,113.34-83.75,93-19.89-8.29-35.5-21.04-37.5-43.25-.88-14.85,3.44-25.13-15.08-33.17-12.34,34.88,4.37,74.44,48.17,91.5,31.58,12.59,65.55-.34,78.92-11.83,49.84-42.21,38.38-106.92-5.11-134.73-14.32-9.4-27.54-12.06-30.47-12.61-28.54-5.35-51.8,7.36-59.08,11.75-1.83,1.86-4.39,2.44-6.33,1.5-3.48-2.21-4.37-7.36-4.75-12.17-.46-5.9-.32-7.05-1-7.33-5.48.93-8.99,13.05-10.67,19-3.84,14.5-4.28,22.57-2.04,35.16h-.02Z"
            fill="#f0a38e" />
        <path
            d="M67.93,51.8c-22.49,26.09-17.31,11.12,6.15,42.19,7.99,9.01-27.09,24.02-21.01,39.83,2.73,5.47,7.77,13.03,15.32,9.92,6.27-2.73,22.14-33.99,27.59-26.75,5.13,6.98,31.42,31.34,32.08,30.17,5.42-2.58,9-7.81,9.22-13.56.27-6.91-4.42-11.38-5.14-12.05-4.37-4.43-8.93-9.47-13.5-15.17-3.06-3.82-5.83-7.56-8.33-11.17,3.94-6.5,8.71-13.56,14.47-20.88,5.06-6.43,10.09-12.06,14.87-16.95-5.39-5.56-9.79-6.63-12.77-6.62-15.08.07-26.21,28.11-32.94,25.43-.8-.32-1.28-.97-1.53-1.36-2.5-1.64-24.14-34.24-24.46-23.03h-.02Z"
            fill="#f7cfba" />
        <animateTransform
            attributeName="transform"
            dur="150ms"
            repeatCount="1"
            type="rotate"
            values="30 96 96;0 96 96"
        />
    </g>
</svg>