<?xml version="1.0" encoding="UTF-8"?>
<svg xmlns="http://www.w3.org/2000/svg" viewBox="0 0 64 64">
    <path
        d="M20.5,23.25v-5.62c0-2.07,1.68-3.75,3.75-3.75h18.12c2.07,0,3.75,1.68,3.75,3.75v28.75c0,2.07-1.68,3.75-3.75,3.75h-18.12c-2.07,0-3.75-1.68-3.75-3.75v-5.62"
        fill="none" stroke="#fff" stroke-width="3.75" />
    <path
        d="M27.69,21.69c.73-.73,1.92-.73,2.65,0l8.99,8.99c.73.73.73,1.92,0,2.65l-8.99,8.99c-.73.73-1.92.73-2.65,0-.73-.73-.73-1.92,0-2.65l5.79-5.79H9.88v-3.75h23.6l-5.79-5.79c-.73-.73-.73-1.92,0-2.65Z"
        fill="#fff" />
</svg>