<?xml version="1.0" encoding="UTF-8"?>
<svg xmlns="http://www.w3.org/2000/svg" xmlns:xlink="http://www.w3.org/1999/xlink"
    viewBox="0 0 64 64">
    <defs>
        <filter id="c" x="12" y="12" width="35" height="35" color-interpolation-filters="sRGB"
            filterUnits="userSpaceOnUse">
            <feColorMatrix result="cm" values="-1 0 0 0 1 0 -1 0 0 1 0 0 -1 0 1 0 0 0 1 0" />
        </filter>
        <mask id="b" x="12" y="12" width="35" height="35" maskUnits="userSpaceOnUse">
            <g filter="url(#c)">
                <path d="M12,12h35v17.5h-17.5v17.5H12V12Z" />
            </g>
        </mask>
    </defs>
    <g opacity=".7">
        <g mask="url(#b)">
            <path
                d="M20.75,13.88h17.5c3.8,0,6.88,3.08,6.88,6.88v17.5c0,3.8-3.08,6.88-6.88,6.88h-17.5c-3.8,0-6.88-3.08-6.88-6.88v-17.5c0-3.8,3.08-6.87,6.88-6.88Z"
                fill="none" stroke="#000" stroke-width="3.75" />
        </g>
        <path
            d="M31.38,38.88c0-4.14,3.36-7.5,7.5-7.5h5.62c4.14,0,7.5,3.36,7.5,7.5v5.62c0,4.14-3.36,7.5-7.5,7.5h-5.62c-4.14,0-7.5-3.36-7.5-7.5v-5.62Z" />
        <path
            d="M21.38,19.5c-1.04,0-1.88.84-1.88,1.88v9.38c0,1.04.84,1.88,1.88,1.88s1.88-.84,1.88-1.88v-7.5h7.5c1.04,0,1.88-.84,1.88-1.88s-.84-1.88-1.88-1.88h-9.38ZM31.38,31.38l1.33-1.33-10-10-1.33,1.33-1.33,1.33,10,10,1.33-1.33Z" />
    </g>
</svg>