<?xml version="1.0" encoding="UTF-8"?>
<svg xmlns="http://www.w3.org/2000/svg" xmlns:xlink="http://www.w3.org/1999/xlink"
    viewBox="0 0 192 192">
    <defs>
        <linearGradient id="b" x1="96" y1="-151.7" x2="96" y2="-279.39"
            gradientTransform="translate(0 -128) scale(1 -1)" gradientUnits="userSpaceOnUse">
            <stop offset="0" stop-color="#a98e5d" />
            <stop offset="1" stop-color="#dbc494" />
        </linearGradient>
        <linearGradient id="c" x1="96" y1="-195.76" x2="96" y2="-275.45"
            gradientTransform="translate(0 -128) scale(1 -1)" gradientUnits="userSpaceOnUse">
            <stop offset="0" stop-color="#93815f" />
            <stop offset="1" stop-color="#dbc494" />
        </linearGradient>
        <linearGradient id="d" x1="96" y1="-191.26" x2="96" y2="-262.7"
            gradientTransform="translate(0 -128) scale(1 -1)" gradientUnits="userSpaceOnUse">
            <stop offset="0" stop-color="#83704f" />
            <stop offset="1" stop-color="#c5af82" />
        </linearGradient>
        <linearGradient id="e" x1="95.72" y1="-236.08" x2="95.72" y2="-272.45"
            gradientTransform="translate(0 -128) scale(1 -1)" gradientUnits="userSpaceOnUse">
            <stop offset="0" stop-color="#a59068" />
            <stop offset="1" stop-color="#c5af82" />
        </linearGradient>
    </defs>
    <circle cx="96.19" cy="105.08" r="71.06" fill="#bcaa8b" stroke="#806b4a" stroke-width="1.5" />
    <path
        d="M64.2,21.3c.84-.69,1.51-.75,1.98-.6.52.16,1.22.71,1.82,2.07.59,1.34,1,3.32,1,6v98.62c0,19.34,4.14,28.24,11.45,34.25,3.55,2.92,7.8,5.11,12.37,7.52,4.46,2.35,9.34,4.96,14.53,8.75l.5.37c1.2.89,2.21,2.28,2.93,3.86.71,1.59,1.07,3.25,1.04,4.6-.03,1.42-.46,2.11-.84,2.35-.32.2-1.18.43-3.03-.51l-.18-.09c-7.9-4.19-15.83-7.01-23.78-9.56-7.73-2.48-15.41-4.69-23.25-7.66l-.76-.29c-13.65-5.26-24.01-12.91-30.97-23.52-6.97-10.61-10.63-24.32-10.63-41.83v-.52c.15-21.31,9.64-34.21,19.34-46.12l.95-1.16c6.76-8.26,16.22-15.81,22.62-31.7l.3-.76c.8-2.05,1.75-3.36,2.61-4.07Z"
        fill="#e7e4de" stroke="#806b4a" stroke-width="3" />
    <path
        d="M64.69,29.96c3.44-8.81,3.38-2.51,3.38,8.74v100.5c0,31.88-22.56,5.81-27.94-.56-5.38-6.38-12.94-18.38-12.94-37.5s5.06-27.75,15.19-40.12c7.06-8.62,16.03-14.93,22.31-31.06Z"
        fill="#bcaa8b" />
    <path d="M58.13,154.39c-17.62-32.81-21.94-17.06-30.75-56.25,0,25.12,4.88,40.31,30.75,56.25Z"
        fill="#967e5c" />
    <path
        d="M96.34,4.76c.49,0,1.29.21,2.19,1.37l.09.12c2.51,3.41,10.52,15.2,22.5,30.62l1.17,1.5c4.41,5.64,29.78,30.35,29.78,74.02,0,30.96-25.1,56.06-56.06,56.06s-56.06-25.1-56.06-56.06v-1.03c.38-42.9,24.26-66.84,29.01-72.72l.21-.27c12.49-16.05,20.95-27.2,24.16-31.31l.57-.73c.98-1.23,1.88-1.55,2.45-1.57Z"
        fill="url(#b)" stroke="#866b4e" stroke-width="5.62" />
    <path
        d="M96,154.1c22.99,0,41.62-18.64,41.62-41.62,0-31.68-18.47-49.71-21.48-53.56-8.91-11.4-14.81-20.1-16.7-22.67-1.89-2.57-4.6-2.39-6.5,0-1.89,2.39-8.12,10.6-17.5,22.67-2.89,3.71-21.08,21.48-21.08,53.56,0,22.99,18.64,41.62,41.62,41.62Z"
        fill="url(#c)" />
    <path
        d="M91.31,32.14c3.72-5.27,5.5-5.3,9.19,0,12.39,17.81,39.94,45.19,39.94,77.81s-23.62,42.19-29.44,42.19-5.81-9,0-9c1.68,1.15,21.56-9.19,21.56-33.19,0-15.19-6.56-31.5-31.5-55.88-4.55-4.45-4.81-4.5-9.75,0-26.81,24.41-32.25,41.25-32.25,55.88,0,23.25,16.57,33.19,22.12,33.19s5.56,9,0,9-29.62-8.44-29.62-42.19,26.77-59.44,39.75-77.81Z"
        fill="url(#d)" />
    <path
        d="M110.06,112.39c10.69,0,16.12-7.31,16.12-.38,0,11.62-10.12,24.94-21.56,26.62-2.84.42-3.38,1.88-3.38,5.06v13.69c0,6.94-11.44,6.75-11.44,0v-13.69c0-3.19-1.69-4.06-4.12-5.06-13.69-5.62-20.44-12.38-20.44-33.56,0-2.25,2.81-4.88,10.12-4.88s19.88,8.06,19.88,8.06c0,0,6,4.12,14.81,4.12Z"
        fill="url(#e)" />
    <path
        d="M121.52,21.16c1.19-.11,2.89.79,3.76,2.72l.08.19c3.6,8.82,8.83,18.02,19.87,29.04l.53.53c13.85,13.67,22.8,29.05,22.8,51.81,0,16.06-5.74,28.29-14.67,39.87,5.59-10.17,7.17-20.39,7.17-32.74,0-17.18-8.76-26.35-16.67-32.8l-.76-.62c-5.58-4.46-12.51-9.85-17.47-16.8l-.24-.33c-6.01-8.57-6.85-16.18-6.85-36.08,0-1.92.41-3.11.88-3.8.45-.66,1.01-.93,1.58-.98Z"
        fill="#e7e4de" stroke="#806b4a" stroke-width="3" stroke-miterlimit="0" />
</svg>