<?xml version="1.0" encoding="UTF-8"?>
<svg xmlns="http://www.w3.org/2000/svg" viewBox="0 0 192 192">
    <path
        d="M166.12,96c0,38.73-31.39,70.12-70.12,70.12S25.88,134.73,25.88,96c0-22.82,10.9-43.09,27.77-55.88h-.03c12.19-10.5,24.57-14.81,33.76-20.62,8.06-5.44,10.01-5.27,18,0,9.18,6.06,20.81,10.88,33,20.62h-.03c16.87,12.79,27.77,33.06,27.77,55.88Z"
        fill="#417049" />
    <path
        d="M163.5,95.88c0,37.28-30.22,67.5-67.5,67.5S28.5,133.16,28.5,95.88c0-21.95,10.48-41.46,26.71-53.79h0c11.73-10.1,23.63-14.25,32.48-19.85,7.76-5.23,9.64-5.07,17.32,0,8.85,5.84,20.03,10.47,31.76,19.85h0c16.23,12.33,26.71,31.84,26.71,53.79Z"
        fill="#8ad19b" />
    <circle cx="95.81" cy="95.81" r="62.81" fill="#daf5bf" />
    <circle cx="95.81" cy="95.81" r="57.19" fill="#b6e7ad" />
    <path
        d="M95.38,45.37c.19.46,1.02.55,1.22,0,1.35-3.76,7.44-6.32,12.15-7.49h-25.12c4.71.98,10.21,3.73,11.76,7.49Z"
        fill="#daf5bf" />
    <path
        d="M95.38,146.26c.19-.46,1.02-.55,1.22,0,1.35,3.76,7.44,6.32,12.15,7.49h-25.12c4.71-.98,10.21-3.73,11.76-7.49Z"
        fill="#daf5bf" />
    <circle cx="96" cy="96" r="51.75" fill="#f2eeda" />
</svg>