<?xml version="1.0" encoding="UTF-8"?>
<svg xmlns="http://www.w3.org/2000/svg" viewBox="0 0 64 64">
    <g opacity=".7">
        <path
            d="M17.08,42.36c5.73,8.28,17.08,10.35,25.36,4.62,8.28-5.73,10.35-17.08,4.62-25.36-5.73-8.28-17.08-10.35-25.36-4.62"
            fill="none" stroke="#000" stroke-linecap="round" stroke-width="4.05" />
        <path
            d="M15.35,26.63s2.1-3.09,4.22-5.15c2.12-2.06,3.85-3.22,3.85-3.22l-1.58-6.25s-3.05,1.48-5.37,5.93c-2.32,4.45-1.12,8.68-1.12,8.68Z" />
        <path
            d="M35.38,32c0,1.86-1.51,3.38-3.38,3.38s-3.38-1.51-3.38-3.38,1.51-3.38,3.38-3.38,3.38,1.51,3.38,3.38Z" />
        <path
            d="M14.45,39.42c-1.12,0-2.02-.91-2.02-2.02s.91-2.02,2.02-2.02,2.03.91,2.03,2.02-.91,2.02-2.03,2.02Z" />
        <path d="M32,20.52v11.48" fill="none" stroke="#000" stroke-linecap="round"
            stroke-width="4.05" />
        <path d="M38.61,35.82l-6.61-3.82" fill="none" stroke="#000" stroke-linecap="round"
            stroke-width="4.05" />
    </g>
</svg>