<?xml version="1.0" encoding="UTF-8"?>
<svg xmlns="http://www.w3.org/2000/svg" xmlns:xlink="http://www.w3.org/1999/xlink"
    viewBox="0 0 96 96">
    <defs>
        <linearGradient id="b" x1="48" y1="100" x2="48" y2="64.75"
            gradientTransform="translate(0 130) scale(1 -1)" gradientUnits="userSpaceOnUse">
            <stop offset="0" stop-color="#8b7251" />
            <stop offset="1" stop-color="#b4a080" />
        </linearGradient>
    </defs>
    <rect x="25.17" y="25.17" width="46.12" height="46.12" rx="4.5" ry="4.5"
        transform="translate(-19.98 48.23) rotate(-45)" fill="#917c5a" stroke="#675c50"
        stroke-miterlimit="4" stroke-width="3" />
    <path
        d="M18.75,6h58.5c2.9,0,5.25,2.35,5.25,5.25s-2.35,5.25-5.25,5.25c-2.07,0-3.75,1.68-3.75,3.75v7.26c0,1.19-.47,2.34-1.32,3.18l-12,12c-2.93,2.93-2.93,7.68,0,10.61l12,12c.84.84,1.32,1.99,1.32,3.18v7.26c0,2.07,1.68,3.75,3.75,3.75,2.9,0,5.25,2.35,5.25,5.25s-2.35,5.25-5.25,5.25H18.75c-2.9,0-5.25-2.35-5.25-5.25s2.35-5.25,5.25-5.25c2.07,0,3.75-1.68,3.75-3.75v-7.26c0-1.19.47-2.34,1.32-3.18l12-12c2.93-2.93,2.93-7.68,0-10.61l-12-12c-.84-.84-1.32-1.99-1.32-3.18v-7.26c0-2.07-1.68-3.75-3.75-3.75-2.9,0-5.25-2.35-5.25-5.25s2.35-5.25,5.25-5.25Z"
        fill="url(#b)" stroke="#675c50" stroke-width="3" />
</svg>