<?xml version="1.0" encoding="UTF-8"?>
<svg xmlns="http://www.w3.org/2000/svg" xmlns:xlink="http://www.w3.org/1999/xlink"
    viewBox="0 0 96 96">
    <defs>
        <linearGradient id="b" x1="67.96" y1="64.25" x2="67.9" y2="64.21"
            gradientTransform="translate(0 98) scale(1 -1)" gradientUnits="userSpaceOnUse">
            <stop offset="0" stop-color="#5a7f35" />
            <stop offset="1" stop-color="#5f923c" />
        </linearGradient>
        <linearGradient id="c" x1="28.39" y1="64.53" x2="28.44" y2="64.49"
            gradientTransform="translate(0 98) scale(1 -1)" gradientUnits="userSpaceOnUse">
            <stop offset="0" stop-color="#5a7f35" />
            <stop offset="1" stop-color="#5f923c" />
        </linearGradient>
    </defs>
    <path
        d="M81,60.72c-.74,43.37-65.27,43.38-66,0-.08-25.29,15.81-33.14,29.87-57.41,1.39-2.41,4.87-2.41,6.26,0,13.84,23.88,29.96,31.7,29.87,57.41Z"
        fill="#5a7f35" />
    <path
        d="M77.38,60.37c-.66,38.63-58.11,38.63-58.76,0,0-22.74,14.08-29.45,26.59-51.11,2.89-5.01,2.79-4.83,5.58,0,12.32,21.33,26.59,27.97,26.59,51.11Z"
        fill="#99e379" />
    <path
        d="M73.8,60.08c-.15,33.42-50.97,33.43-51.12,0-.26-20.94,19.18-36.43,23.74-44.11,1.43-2.49,1.95-2.49,3.39,0,4.41,7.39,24.28,22.41,23.99,44.11Z"
        fill="#5f923c" />
    <path
        d="M69.89,59.72c-.12,28.5-43.47,28.5-43.59,0-.21-18.28,16.91-32.08,20.8-38.78.89-1.58.9-1.6,1.8,0,3.77,6.46,21.23,19.81,20.99,38.78Z"
        fill="#9ce87b" />
    <path
        d="M47.1,20.94c1.26-1.81.58-1.81,1.81,0,4.6,6.81,8.47,9.06,14.1,17.69h-29.62c5.62-8.62,9-10.88,13.72-17.69Z"
        fill="#80c556" />
    <path
        d="M59.25,53.44v4.12c0,.85-.69,1.54-1.54,1.54h-6.11v6.11c0,.85-.69,1.54-1.54,1.54h-4.12c-.85,0-1.54-.69-1.54-1.54v-6.11h-6.11c-.85,0-1.54-.69-1.54-1.54v-4.12c0-.85.69-1.54,1.54-1.54h6.11v-6.11c0-.85.69-1.54,1.54-1.54h4.12c.85,0,1.54.69,1.54,1.54v6.11h6.11c.85,0,1.54.69,1.54,1.54Z"
        fill="#5c9b2c" />
    <path
        d="M75,13.88c.56-4.5,7.88-4.5,8.25,2.62,9.54-11.78,12,4.8,7.12,11.25,3-.38,2.25,5.44-2.25,8.25-3,1.88-8.25,4.12-15.38,3.75-7.41,3.47-13.06-5.06-10.88-11.25,2.01-4.88,12.56-7.4,13.13-14.63Z"
        fill="url(#b)" />
    <path
        d="M80.25,14.62c.75,1.5.75,2.79.38,5.62,4.12-1.5,5.55-2.8,6.38-4.12,4.53-6.78,6.55,13.9-6.38,14.25,3.75.38,4.8.2,6.38-.38,4.5-1.64,1.88,6.38-11.62,7.5-2.25.19.82-1.88,0-6-.67-3.38-4.75-3-6-1.5s-.37,2.91.75,1.5c.9-1.12,4.03-1.49,3.75,1.88-.69,9.3-12.39,3.44-9.75-4.13,1.77-3.54,11.54-6.75,12.75-13.12.47-2.47,2.25-3.75,3.38-1.5Z"
        fill="#99e479" />
    <path
        d="M21.52,13.6c-.56-4.5-7.88-4.5-8.25,2.62C3.72,4.44,1.27,21.02,6.14,27.48c-3-.38-2.25,5.44,2.25,8.25,3,1.88,8.25,4.12,15.38,3.75,7.41,3.47,13.06-5.06,10.88-11.25-2.01-4.88-12.56-7.4-13.13-14.63Z"
        fill="url(#c)" />
    <path
        d="M16.27,14.35c-.75,1.5-.75,2.79-.38,5.62-4.12-1.5-5.55-2.8-6.38-4.12-4.53-6.78-6.55,13.9,6.38,14.25-3.75.37-4.8.2-6.38-.38-4.5-1.64-1.88,6.38,11.63,7.5,2.25.19-.83-1.88,0-6,.68-3.38,4.75-3,6-1.5,1.25,1.5.37,2.91-.75,1.5-.9-1.12-4.03-1.49-3.75,1.88.69,9.3,12.39,3.44,9.75-4.13-1.77-3.53-11.54-6.75-12.75-13.12-.47-2.47-2.25-3.75-3.38-1.5Z"
        fill="#99e479" />
</svg>