<?xml version="1.0" encoding="UTF-8"?>
<svg xmlns="http://www.w3.org/2000/svg" viewBox="0 0 180 180">
    <path
        d="M174.13,89.5c-3.86-2.86-6.8-6.26-8.84-10.17-4.37-32.42-29.31-58.3-61.26-64.09-5.2-1.98-9.59-5.37-13.16-10.18-3.44,4.63-7.63,7.94-12.58,9.94-32.51,5.29-58.04,31.33-62.56,64.08-2.04,4.11-5.06,7.65-9.06,10.62,4.05,3.01,7.09,6.6,9.13,10.76,4.76,32.69,30.45,58.59,63.05,63.64,4.76,2.02,8.81,5.27,12.15,9.76,3.51-4.73,7.82-8.09,12.92-10.08,32.01-5.75,57-31.65,61.37-64.11,2.04-3.92,4.98-7.31,8.84-10.17Z"
        fill="#856f52" stroke="#4b3526" stroke-miterlimit="10" />
    <path
        d="M167.01,90.09c-3.57-2.66-6.29-5.81-8.16-9.46-4.03-29.83-26.84-53.66-56.09-59.08-4.83-1.86-8.88-5.07-12.2-9.55-3.25,4.39-7.23,7.5-11.96,9.34-29.75,4.98-53.08,28.95-57.24,59.09-1.88,3.81-4.66,7.09-8.35,9.84,3.74,2.79,6.54,6.12,8.42,9.99,4.39,30.13,27.97,54,57.88,58.68,4.41,1.86,8.16,4.87,11.25,9.05,3.25-4.4,7.24-7.51,11.97-9.34,29.35-5.34,52.27-29.19,56.32-59.09,1.87-3.65,4.59-6.8,8.16-9.46Z"
        fill="#70563f" />
    <circle cx="90" cy="90" r="57" fill="#6b4f36" stroke="#473728" stroke-miterlimit="100"
        stroke-width="8" />
    <path
        d="M23.08,97.78c-.53-4.8-3.2-7.47-8-8,4.8-.53,7.47-3.2,8-8,.53,4.8,3.2,7.47,8,8-4.8.53-7.47,3.2-8,8Z"
        fill="#856f52" />
    <path
        d="M157.08,97.78c-.53-4.8-3.2-7.47-8-8,4.8-.53,7.47-3.2,8-8,.53,4.8,3.2,7.47,8,8-4.8.53-7.47,3.2-8,8Z"
        fill="#856f52" />
    <path
        d="M90.42,30.78c-.56-5-3.33-7.78-8.33-8.33,5-.56,7.78-3.33,8.33-8.33.56,5,3.33,7.78,8.33,8.33-5,.56-7.78,3.33-8.33,8.33Z"
        fill="#856f52" />
    <path
        d="M90.42,165.78c-.56-5-3.33-7.78-8.33-8.33,5-.56,7.78-3.33,8.33-8.33.56,5,3.33,7.78,8.33,8.33-5,.56-7.78,3.33-8.33,8.33Z"
        fill="#856f52" />
    <circle cx="90" cy="90" r="43.5" fill="none" stroke="#91714f" stroke-miterlimit="100"
        stroke-width="5" />
</svg>