<?xml version="1.0" encoding="UTF-8"?>
<svg xmlns="http://www.w3.org/2000/svg" xmlns:xlink="http://www.w3.org/1999/xlink"
  viewBox="0 0 192 192">
  <defs>
    <radialGradient id="b" cx="96" cy="96" fx="96" fy="96" r="96"
      gradientTransform="translate(0 192) scale(1 -1)" gradientUnits="userSpaceOnUse">
      <stop offset="0" stop-color="#dfb14b" />
      <stop offset=".33" stop-color="#e4a73c" />
      <stop offset=".66" stop-color="#f2b454" stop-opacity=".8" />
      <stop offset=".67" stop-color="#d28929" stop-opacity=".65" />
      <stop offset=".83" stop-color="#cc8027" stop-opacity=".35" />
      <stop offset=".96" stop-color="#c18f41" stop-opacity="0" />
    </radialGradient>
    <filter id="c" x="39" y="52" width="114" height="95" filterUnits="userSpaceOnUse">
      <feOffset dx="0" dy="0" />
      <feGaussianBlur result="d" stdDeviation="6" />
      <feFlood flood-color="#fad952" flood-opacity="1" />
      <feComposite in2="d" operator="in" />
      <feComposite in="SourceGraphic" />
    </filter>
  </defs>
  <circle cx="96" cy="96" r="96" fill="url(#b)" />
  <path
    d="M102.56,14.58c7.5,4.96,12.77,5.04,20.76,7.94,18.27,6.64,34.04,21.06,42.71,38.44,4.87,9.76,5.52,19.44,11.29,28.46,1.1,1.72,4.06,5.35,4.06,6.77-.55,2.4-2.62,4.04-4.06,6.39-5.54,9.04-6.19,16.82-10.52,26.27-8.36,18.26-24.75,33.03-43.48,39.99-8.44,3.14-13.94,3.54-21.92,8.88-5.52,4.75-5.17,5-10.8,0-8.12-5.55-9.93-4.95-18.62-7.72-22.32-7.13-41.87-26.51-49.41-48.75-3.01-8.88-3.16-11.57-8.86-19.9-1.3-1.9-2.62-3.87-3.89-5.8,1.63-2.28,3.17-4.37,4.66-6.58,4.79-7.11,5.19-10.08,7.76-17.64,8.66-25.48,27.39-42.81,52.83-50.73,7.67-2.39,7.41-2.32,14.36-6.02,6.78-4.94,6.02-5.17,13.12,0h.01Z"
    fill="none" isolation="isolate" opacity=".35" stroke="#ffe6a0" stroke-miterlimit="10"
    stroke-width="4" />
  <path
    d="M165.85,91.14l2.98-5.97c.21,5.97,3.1,8.76,6.73,11.1-3.73,2.16-6.65,4.83-6.73,10.56l-2.98-5.97c-2.35-4.68-2.32-4.64,0-9.71h0Z"
    fill="#ffe6a0" isolation="isolate" opacity=".35" />
  <path
    d="M25.4,100.86l-2.98,5.97c-.21-5.97-3.1-8.76-6.73-11.1,3.73-2.16,6.65-4.83,6.73-10.56l2.98,5.97c2.35,4.68,2.32,4.64,0,9.71h0Z"
    fill="#ffe6a0" isolation="isolate" opacity=".35" />
  <path
    d="M100.86,165.63l5.97,2.98c-5.97.21-8.76,3.1-11.1,6.73-2.16-3.73-4.83-6.65-10.56-6.73l5.97-2.98c4.68-2.35,4.64-2.32,9.71,0h0Z"
    fill="#ffe6a0" isolation="isolate" opacity=".35" />
  <path
    d="M91.14,26.31l-5.97-2.98c5.97-.21,8.76-3.1,11.1-6.73,2.16,3.73,4.83,6.65,10.56,6.73l-5.97,2.98c-4.68,2.35-4.64,2.32-9.71,0h0Z"
    fill="#ffe6a0" isolation="isolate" opacity=".35" />
  <path
    d="M96,38.4c-31.81,0-57.61,25.79-57.61,57.61s25.8,57.6,57.61,57.6,57.61-25.79,57.61-57.6-25.79-57.61-57.61-57.61ZM133.94,129.1c-1.21.24-4.52,0-4.69.17-.43.44.72,6.93-4.12,11.19-12.98,11.43-44.54,11.14-57.81.33-6.06-4.93-3.12-8.91-4.65-11.42-.35-.56-8.01-.8-11.44-4.62-8.24-9.2-9.36-29.71-6.92-41.2,2.03-9.52,7.6-21.9,19.16-20.81-.99-13.01,13.87-17.85,24.41-19.29,13.81-1.89,41.56,1.42,41.42,20.04,11.48-1.03,16.12,10.08,18.27,19.46,2.82,12.31,1.67,27.47-4.74,38.6-2.2,3.82-4.34,6.63-8.89,7.55h0Z"
    fill="#f6ce7f" />
  <path
    d="M84.53,105.45c1.39,1.51-1.52,1.38,0,0l37.24-33.88c1.45-1.32,7.34-2.1,8.75-.74l3.54,2.98c1.47,1.41.75,2.87-.64,4.36l-45.76,49.09c-1.55,1.66-4.21,1.56-5.63-.21l-24.44-30.47c-1.27-1.58.44-5.64,2-6.94l1.86-1.3c1.53-1.28,5.15-2.01,6.5-.55l16.59,17.67h-.01Z"
    fill="#fff7c9" filter="url(#c)" />
</svg>