<?xml version="1.0" encoding="UTF-8"?>
<svg xmlns="http://www.w3.org/2000/svg" viewBox="0 0 192 192">
    <path
        d="M20,172c.94.94,15.67-4.61,21,6-9.94,0-21.44,1.15-30,3,2-8.56,3-19.94,3-30,10.56,5.28,5,20,6,21Z"
        fill="#704c2d" stroke="#392b1e" />
    <path
        d="M48.61,170.44c-7.17-3.18-15.28-4.09-24.33-2.72,1.37-9.05.46-17.16-2.72-24.33,7,10.82,16.23,20.05,27.05,27.05Z"
        fill="#704c2d" stroke="#392b1e" />
    <path
        d="M48.61,21.56c-10.82,7-20.05,16.23-27.05,27.05,3.18-7.17,4.09-15.28,2.72-24.33,9.05,1.37,17.16.46,24.33-2.72Z"
        fill="#704c2d" stroke="#392b1e" />
    <path
        d="M170.44,48.61c-7-10.82-16.23-20.05-27.05-27.05,7.17,3.18,15.28,4.09,24.33,2.72-1.37,9.05-.46,17.16,2.72,24.33Z"
        fill="#704c2d" stroke="#392b1e" />
    <path
        d="M167.72,167.72c-9.05-1.37-17.16-.46-24.33,2.72,10.82-7,20.05-16.23,27.05-27.05-3.18,7.17-4.09,15.28-2.72,24.33Z"
        fill="#704c2d" stroke="#392b1e" />
    <path
        d="M20,20c-.94.94,4.61,15.67-6,21,0-9.94-1.15-21.44-3-30,8.56,2,19.94,3,30,3-5.28,10.56-20,5-21,6Z"
        fill="#704c2d" stroke="#392b1e" />
    <path
        d="M172,172c.94-.94-4.61-15.67,6-21,0,9.94,1.15,21.44,3,30-8.56-2-19.94-3-30-3,5.28-10.56,20-5,21-6Z"
        fill="#704c2d" stroke="#392b1e" />
    <path
        d="M172,20c-.94-.94-15.67,4.61-21-6,9.94,0,21.44-1.15,30-3-2,8.56-3,19.94-3,30-10.56-5.28-5-20-6-21Z"
        fill="#704c2d" stroke="#392b1e" />
    <circle cx="96" cy="96" r="84.25" fill="none" stroke="#725e4c" stroke-width="9.5" />
</svg>