<?xml version="1.0" encoding="UTF-8"?>
<svg xmlns="http://www.w3.org/2000/svg" xmlns:xlink="http://www.w3.org/1999/xlink"
    viewBox="0 0 96 96">
    <defs>
        <radialGradient id="b" cx="48" cy="48" fx="48" fy="48" r="48" gradientUnits="userSpaceOnUse">
            <stop offset=".7" stop-color="#d0814e" stop-opacity=".65" />
            <stop offset=".9" stop-color="#d0814e" stop-opacity=".4" />
            <stop offset="1" stop-color="#d0814e" stop-opacity="0" />
        </radialGradient>
    </defs>
    <circle cx="48" cy="48" r="48" fill="url(#b)" />
    <path
        d="M41.65,85.07c-3.92-2.76-8.74-3.56-12.63-6.31-14.37-8.77-20.47-28.55-13.86-43.99C30.37-1.18,82.98,9.17,83.5,48.43c.08,13.99-8.27,26.97-20.78,32.65-2.8,1.27-5.86,2.11-8.35,3.96-2.17,1.41-5.57,6.27-6.37,6.27s-3.61-4.5-6.35-6.26h0Z"
        fill="#d59165" stroke="#b4673c" stroke-width="2" />
    <path
        d="M64.85,64.75c2.82,14.99-36.49,15-33.67,0-14.89,2.85-14.9-36.35,0-33.5-2.82-14.99,36.49-15,33.67,0,14.83-2.96,14.91,36.49,0,33.5Z"
        fill="#b46538" />
    <circle cx="48.19" cy="20.62" r="11.62" fill="#fcd08d" stroke="#b4673c" stroke-width="2" />
    <path
        d="M48.3,32.3c11.64,1.87,17.05,4.69,21.77,7.37,1.1.63,1.1,1.11,0,2.1l-5.82,4.54c-4.61,26.54-14.14,36.99-16.05,36.99s-12.04-10.36-15.65-36.4l-6.82-5.52c-.8-.89-.96-1.16,0-1.71,6.42-3.62,10.23-5.3,22.57-7.37Z"
        fill="#fcd08d" stroke="#b4673c" stroke-width="2.01" />
    <circle cx="64.78" cy="64.59" r="20.16" fill="rgba(180,103,60,.7)" />
    <path
        d="M64.69,48.66c11.06,0,15.84,8.72,15.84,12.84,0,1.58-.56,2.25-1.5,2.25h-2.06c-1.22,0-2.16,0-2.44-1.69-5.06-12-15.84-6.66-16.97-3.28l1.97,2.45c.47.73.19,1.39-1.03,1.39h-7.31c-1.31,0-1.31-.57-1.31-1.39v-7.7c0-.84.75-1.59,1.78-.56l1.31,1.12c2.06-2.06,6-5.44,11.72-5.44Z"
        fill="#fcd08d" />
    <path
        d="M65.53,80.34c-11.06,0-15.84-8.72-15.84-12.84,0-1.58.56-2.25,1.5-2.25h2.06c1.22,0,2.16,0,2.44,1.69,5.06,12,15.84,6.66,16.97,3.28l-1.97-2.45c-.47-.73-.19-1.39,1.03-1.39h7.31c1.31,0,1.31.57,1.31,1.39v7.7c0,.84-.75,1.59-1.78.56l-1.31-1.12c-2.06,2.06-6,5.44-11.72,5.44Z"
        fill="#fcd08d" />
</svg>