<?xml version="1.0" encoding="UTF-8"?>
<svg xmlns="http://www.w3.org/2000/svg" viewBox="0 0 192 192">
  <circle cx="96" cy="41.73" r="21.38" fill="#ffd683" />
  <path
    d="M96,66.69c21.75,3.56,32.47,8.92,41.28,14.01,2.06,1.19,2.06,2.12,0,3.99l-10.88,8.62c-8.62,50.44-26.85,70.31-30.41,70.31s-22.09-19.69-28.84-69.19l-12.75-10.5c-1.5-1.69-1.8-2.21,0-3.24,12-6.88,18.53-10.07,41.59-14.01Z"
    fill="#ffd683" />
  <circle cx="130.85" cy="129.18" r="40" fill="#b4673c" opacity=".7" />
  <path
    d="M129.82,97.42c22.12,0,31.69,17.44,31.69,25.69,0,3.16-1.12,4.5-3,4.5h-4.12c-2.44,0-4.31,0-4.88-3.38-10.12-24-31.69-13.31-33.94-6.56l3.94,4.91c.94,1.47.38,2.79-2.06,2.79h-14.62c-2.62,0-2.62-1.13-2.62-2.79v-15.41c0-1.69,1.5-3.19,3.56-1.12l2.62,2.25c4.12-4.12,12-10.88,23.44-10.88Z"
    fill="#ffd683" />
  <path
    d="M131.51,160.79c-22.12,0-31.69-17.44-31.69-25.69,0-3.16,1.12-4.5,3-4.5h4.12c2.44,0,4.31,0,4.88,3.38,10.12,24,31.69,13.31,33.94,6.56l-3.94-4.91c-.94-1.47-.38-2.79,2.06-2.79h14.62c2.62,0,2.62,1.13,2.62,2.79v15.41c0,1.69-1.5,3.19-3.56,1.12l-2.62-2.25c-4.12,4.12-12,10.88-23.44,10.88Z"
    fill="#ffd683" />
</svg>