<?xml version="1.0" encoding="UTF-8"?>
<svg xmlns="http://www.w3.org/2000/svg" viewBox="0 0 96 96">
    <path
        d="M94.03,49.3c-.79,2.29-2.97,3.99-4.31,6.01-3.17,4.5-4.1,10.05-7.26,14.52-10.09,16.52-32.84,23.54-50.59,15.94C-9.47,68.28,2.43,7.78,47.59,7.18c16.08-.1,31.02,9.51,37.55,23.89,1.46,3.22,2.42,6.73,4.56,9.61,1.71,2.63,5.4,5.12,4.32,8.62Z"
        fill="#ccb893" stroke="#8c6b44" stroke-miterlimit="0" stroke-width="3" />
    <circle cx="47.57" cy="48" r="35.25" fill="#ede4d2" />
    <path
        d="M46.46,44.99c1.39,2.27,3.28,4.13,5.57,5.58,27.07,12.86-.18,2.24-7.7,24.39-4.11,14.08-6.22-.68-9.68-5.97-4.23-6.85-12.53-7.12-16.35-10.7-2.61-2.4,2.56-3.82,4.44-4.51,18.78-2.61,15.2-34.64,22.38-11.09"
        fill="#615d66" />
    <path
        d="M77.52,38.49c-.54,1.03-2.44,1.61-3.56,2.12-9.05,3.19-8.36,14.76-11.02,10.95-.49-.75-.9-1.74-1.3-2.59-2.08-4.55-4.73-7.14-9.34-8.94-.87-.44-2.39-1.08-2.4-1.94.05-1.57,8.96-3.94,11.22-9.57.53-1.07.88-2.34,1.3-3.33.32-.72.71-1.25,1.11-1.3,1.24-.06,2.28,3.75,2.88,4.77.97,2.07,2.43,3.88,4.27,5.26,1.01.77,2.09,1.33,3.27,1.83.96.5,4.03,1.38,3.59,2.72v.03Z"
        fill="#615d66" />
    <path
        d="M43.44,15.12c.74.13,1.29,2.43,2.03,3.41.99,1.58,3.23,2.89,4.89,3.48,3.92,1.39-4.59,3.03-4.06,5.26.14.57.92.92,2.01,1.5,1.98,1.02,4.97,2.41,6.63,3.19,1.03.43,1.4,1.41.33,2.04-2.22,1.32-5.19-1.69-8.64-4.9-2.69-2.5-2.27,4.06-4.95-.43-2.37-3.97-6.35-4.56-6.33-5.85s4.5-1.32,6.22-5.22c.38-.56.92-2.6,1.87-2.47Z"
        fill="#615d66" />
    <path
        d="M55.84,42.44c1.08,1.07-.31,1.96-1.02,2.57-1.02.88-3.8,3.07-4.78,1.67-1.28-1.83,4.59-5.45,5.8-4.25Z"
        fill="#615d66" />
</svg>