<?xml version="1.0" encoding="UTF-8"?>
<svg xmlns="http://www.w3.org/2000/svg" xmlns:xlink="http://www.w3.org/1999/xlink"
    viewBox="0 0 96 96">
    <defs>
        <radialGradient id="b" cx="48" cy="48" fx="48" fy="48" r="48" gradientUnits="userSpaceOnUse">
            <stop offset=".7" stop-color="#d0814e" stop-opacity=".65" />
            <stop offset=".9" stop-color="#d0814e" stop-opacity=".4" />
            <stop offset="1" stop-color="#d0814e" stop-opacity="0" />
        </radialGradient>
    </defs>
    <circle cx="48" cy="48" r="48" fill="url(#b)" />
    <path
        d="M87.69,12.82l-12.12,18.39c6.71,10.25,6.18,25.7-1.12,35.46l3.7,7.55c1.26,2.56-1.43,5.26-3.99,4.03l-7.65-3.69c-9.83,7.27-25.32,7.67-35.53.87l-18.2,12.34c-2.68,1.83-5.95-1.32-4.22-4.07l11.89-18.99c-6.85-10.67-5.84-26.68,2.15-36.38l-4.04-8.25c-1.26-2.56,1.42-5.26,3.99-4.02.3.18,8.98,4.2,8.9,4.4,9.43-6,23.36-6.11,32.89-.23l19.29-11.63c2.74-1.64,5.81,1.56,4.06,4.22Z"
        fill="#8c573c" />
    <circle cx="48.09" cy="48.09" r="25.5" fill="#8c522f" stroke="#a16642" stroke-miterlimit="10"
        stroke-width="6.75" />
    <path
        d="M84.84,11.53l-23.44,35.26,14.25,28.68-28.31-14.72-35.72,23.91,23.72-37.87-13.78-27.57,27.75,13.69,35.53-21.38Z"
        fill="#d0865c" />
    <path
        d="M46.65,28.72c.39-.88,1.63-.9,2.05-.03l5.56,11.74c.24.5.65.9,1.16,1.11l11.65,4.92c.9.38.92,1.65.04,2.06l-11.74,5.45c-.48.22-.87.61-1.09,1.09l-5.57,11.91c-.41.88-1.66.86-2.05-.03l-5.18-11.82c-.23-.52-.64-.94-1.17-1.16l-12.52-5.43c-.92-.4-.9-1.71.03-2.08l12.44-4.91c.55-.22.99-.64,1.23-1.18l5.16-11.66Z"
        fill="#fddc99" stroke="#8c522f" stroke-width="1.12" />
</svg>