<?xml version="1.0" encoding="UTF-8"?>
<svg xmlns="http://www.w3.org/2000/svg" xmlns:xlink="http://www.w3.org/1999/xlink"
    viewBox="0 0 96 96">
    <defs>
        <filter id="c" x="11.05" y="6.27" width="87.02" height="87.3"
            color-interpolation-filters="sRGB" filterUnits="userSpaceOnUse">
            <feColorMatrix result="cm" values="-1 0 0 0 1 0 -1 0 0 1 0 0 -1 0 1 0 0 0 1 0" />
        </filter>
        <mask id="b" x="11.05" y="6.27" width="87.02" height="87.3" maskUnits="userSpaceOnUse">
            <g filter="url(#c)">
                <g id="d">
                    <path
                        d="M44.58,7.24c2.03-1.17,4.53-1.17,6.56,0l30.16,17.41c2.03,1.17,3.28,3.34,3.28,5.68v25.98c-7.66-4.73-17.74-2.52-22.71,5.05-4.16,6.35-3.44,14.48,1.25,19.98l-11.98,6.92c-2.03,1.17-4.53,1.17-6.56,0l-30.16-17.41c-2.03-1.17-3.28-3.34-3.28-5.68V30.34c0-2.34,1.25-4.51,3.28-5.68L44.58,7.24Z" />
                    <path
                        d="M44.58,7.24c2.03-1.17,4.53-1.17,6.56,0l30.16,17.41c2.03,1.17,3.28,3.34,3.28,5.68v25.98c-7.66-4.73-17.74-2.52-22.71,5.05-4.16,6.35-3.44,14.48,1.25,19.98l-11.98,6.92c-2.03,1.17-4.53,1.17-6.56,0l-30.16-17.41c-2.03-1.17-3.28-3.34-3.28-5.68V30.34c0-2.34,1.25-4.51,3.28-5.68L44.58,7.24Z"
                        fill="none" stroke="#f5e09e" stroke-width=".19" />
                </g>
            </g>
        </mask>
        <mask id="e" x="-147.7" y="-172.59" width="391.73" height="441.5" maskUnits="userSpaceOnUse">
            <g id="f">
                <path
                    d="M39.41-152.74c5.25-3.03,11.67-3.12,16.99-.28l.51.28L217.78-59.87c5.42,3.13,8.75,8.9,8.75,15.15v185.75c0,6.25-3.33,12.03-8.75,15.15L56.92,249.07c-5.24,3.03-11.67,3.12-16.99.28l-.51-.28-160.86-92.88c-5.41-3.13-8.75-8.9-8.75-15.15V-44.71c0-6.06,3.13-11.67,8.25-14.85l.5-.3L39.41-152.74Z"
                    fill="#cc8c44" stroke="#f5e09e" stroke-width="35" />
            </g>
        </mask>
    </defs>
    <g mask="url(#b)">
        <path
            d="M46.39,10.36c.98-.57,2.19-.59,3.19-.05l.1.05,30.16,17.41c1.02.59,1.64,1.67,1.64,2.84v34.83c0,1.17-.63,2.26-1.64,2.84l-30.16,17.41c-.98.57-2.19.59-3.19.05l-.1-.05-30.16-17.41c-1.02-.59-1.64-1.67-1.64-2.84V30.62c0-1.14.59-2.19,1.55-2.79l.09-.06,30.16-17.41Z"
            fill="#cc8c44" stroke="#f5e09e" stroke-width="6.56" />
        <path
            d="M45.56,17.85c1.45-.84,3.24-.84,4.69,0l22.51,13c1.45.84,2.34,2.38,2.34,4.06v25.99c0,1.67-.89,3.22-2.34,4.06l-22.51,13c-1.45.84-3.24.84-4.69,0l-22.51-13c-1.45-.84-2.34-2.38-2.34-4.06v-25.99c0-1.67.89-3.22,2.34-4.06l22.51-13Z"
            fill="#f5e09e" />
        <line x1="47.81" y1="16.5" x2="47.81" y2="79.31" fill="none" stroke="#cc8c44"
            stroke-width="1.5" />
        <line x1="20.8" y1="32.12" x2="75.2" y2="63.52" fill="none" stroke="#cc8c44"
            stroke-width="1.5" />
        <line x1="74.82" y1="32.29" x2="20.43" y2="63.7" fill="none" stroke="#cc8c44"
            stroke-width="1.5" />
        <g mask="url(#e)">
            <circle cx="74.91" cy="70.41" r="19.41" fill="none" stroke="#cc8c44" stroke-width="7.5" />
        </g>
    </g>
    <path
        d="M75.02,90.14c-12.31,0-19.71-9.99-19.71-20.06s8.47-19.26,19.71-19.26c8.38,0,12.39,3.92,15.51,7.4l1.69-1.43c1.34-1.16,2.59,0,2.59,1.69l.62,8.11c0,2.23-.89,2.59-2.59,2.59l-7.94-.8c-1.87-.27-2.85-1.78-1.69-3.12l2.05-2.14c-.62-.89-3.75-5.17-10.25-5.17s-12.48,5.53-12.48,12.13,4.55,12.93,12.48,12.93,11.59-6.15,12.39-9.9c.4-1.87,2.23-2.05,3.92-1.87,1.69.18,3.44,1.18,2.76,4.55-1.07,5.35-7.67,14.36-19.08,14.36Z"
        fill="#f5e09e" />
</svg>