<?xml version="1.0" encoding="UTF-8"?>
<svg xmlns="http://www.w3.org/2000/svg" viewBox="0 0 96 96">
    <path
        d="M94.03,49.3c-.79,2.29-2.97,3.99-4.31,6.01-3.17,4.5-4.1,10.05-7.26,14.52-10.09,16.52-32.84,23.54-50.59,15.94C-9.47,68.28,2.43,7.78,47.59,7.18c16.08-.1,31.02,9.51,37.55,23.89,1.46,3.22,2.42,6.73,4.56,9.61,1.71,2.63,5.4,5.12,4.32,8.62Z"
        fill="#ccb893" stroke="#8c6b44" stroke-miterlimit="0" stroke-width="3" />
    <circle cx="47.57" cy="48" r="35.25" fill="#ede4d2" />
    <path
        d="M66.79,32.37c-2.18,2.47-4.04,5.21-6.41,7.51-.1.44,1.88,3.87,2.38,4.09.99.45,2.9-.02,3.28.47.8,1.04-2.04,6.57-2.99,5.76-4.65-3.96-4.66-4.19-5.1-3.66-.53.63-.33.7,4.45,4.82.52.45-1.74,7.54-3.86,9.59-1.91,1.84-9.16,7.91-11.25,7.99-1.27.05-7.2-3.26-6.87-4.4.18-.62,17.25-17.99,17.67-18.42.16-.17-.7-1.17-.91-.94l-23.76,24.43c-1.45,1.27-10.53,4.76-11.42,3.66-1.46-1.81,3.15-9.91,3.72-11.14.19-.41,5.05-4.92,5.09-5.31.38-3.83-3.69,3.08-3.92,1.42-.27-1.98-.64-15.09-.58-17.72,0-.43-.19-11.9,1.19-12.47,10.58-1.19,25.52-2.97,35.42-.3-1.33.97-4.76,3.92-5.09,3.81-.3-.1-4.48-.77-4.79-.87-1.1-.36-.36-1.35-.82-1.58-2.41-1.19-4.98.9-7.22,1.32-4.32,1.07-10.59-.12-14.2,2.04l.15,24.25,19-17.86c.59-.53-.5-1.55-.95-1.06l-16.79,15.92c-.01-2.3-.28-19.47.5-20.11.45-.37,10.25-1.68,10.65-1.25,5.02,5.44,5.1,5.78,5.58,5.38.74-.6.26-.69-3.5-4.9-.7-.78,2.58-2.54,3.51-2.73,4.41-.91,1.39,1.39,2.99,3.5.15.19,3.37,1.95,3.55,1.78.2-.31,10.36-7.8,10.97-8.26-.41-1.15-.47-4.21,2.53-5.43,6.91-1.72,7.29,8.74.21,7.65-.36.12-1.87,2.46-2.36,3.03ZM50.72,39.24c0-.44-.91.35-.92.68-.14,4.36-.18,5.35.03,5.58.18.19.24.2,6.18.14.14,0,1.19-.87.53-.87-5.36-.03-5.5-.06-5.64-.24s-.19-.42-.19-5.27Z"
        fill="#615d66" />
    <path
        d="M64.35,37.34c.2-.21,3.5-4.13,3.5-3.5,0,11.5,1.23,20.69-5.19,29.83-1.92,2.73-11.7,10.23-14.67,10.81-1.8.36-11.1-5.17-11.22-6.43-.03-.32,2.03-2.02,2.26-2.27.53-.6,5.71,4.9,9.23,4.21,1.55-.3,9.94-6.81,11.16-8.32,2.65-3.26,2.91-6.01,4.49-10,.45-1.14,2.36-3.51,2.89-5.22,1.52-4.89-2.65-2.94-2.63-3.51.07-1.77-.09-5.33.18-5.62Z"
        fill="#615d66" />
</svg>